<svg xmlns="http://www.w3.org/2000/svg" xmlns:xlink="http://www.w3.org/1999/xlink" width="66.065mm" height="36.474mm" viewBox="4056.7 2980.5 260.1 143.6"><title></title><style type="text/css">
*[layerid="1"] {stroke:#000000;fill:#000000;}
*[layerid="2"] {stroke:#000000;fill:#000000;}
*[layerid="3"] {stroke:#000000;fill:#000000;}
*[layerid="4"] {stroke:#000000;fill:#000000;}
*[layerid="5"] {stroke:#000000;fill:#000000;}
*[layerid="6"] {stroke:#000000;fill:#000000;}
*[layerid="7"] {stroke:#000000;fill:#000000;}
*[layerid="8"] {stroke:#000000;fill:#000000;}
*[layerid="9"] {stroke:#000000;fill:#000000;}
*[layerid="10"] {stroke:#000000;fill:#000000;}
*[layerid="11"] {stroke:#000000;fill:#000000;}
*[layerid="12"] {stroke:#000000;fill:#000000;}
*[layerid="13"] {stroke:#000000;fill:#000000;}
*[layerid="14"] {stroke:#000000;fill:#000000;}
*[layerid="15"] {stroke:#000000;fill:#000000;}
*[layerid="21"] {stroke:#000000;fill:#000000;}
*[layerid="22"] {stroke:#000000;fill:#000000;}
*[layerid="23"] {stroke:#000000;fill:#000000;}
*[layerid="24"] {stroke:#000000;fill:#000000;}
*[layerid="25"] {stroke:#000000;fill:#000000;}
*[layerid="26"] {stroke:#000000;fill:#000000;}
*[layerid="27"] {stroke:#000000;fill:#000000;}
*[layerid="28"] {stroke:#000000;fill:#000000;}
*[layerid="29"] {stroke:#000000;fill:#000000;}
*[layerid="30"] {stroke:#000000;fill:#000000;}
*[layerid="31"] {stroke:#000000;fill:#000000;}
*[layerid="32"] {stroke:#000000;fill:#000000;}
*[layerid="33"] {stroke:#000000;fill:#000000;}
*[layerid="34"] {stroke:#000000;fill:#000000;}
*[layerid="35"] {stroke:#000000;fill:#000000;}
*[layerid="36"] {stroke:#000000;fill:#000000;}
*[layerid="37"] {stroke:#000000;fill:#000000;}
*[layerid="38"] {stroke:#000000;fill:#000000;}
*[layerid="39"] {stroke:#000000;fill:#000000;}
*[layerid="40"] {stroke:#000000;fill:#000000;}
*[layerid="41"] {stroke:#000000;fill:#000000;}
*[layerid="42"] {stroke:#000000;fill:#000000;}
*[layerid="43"] {stroke:#000000;fill:#000000;}
*[layerid="44"] {stroke:#000000;fill:#000000;}
*[layerid="45"] {stroke:#000000;fill:#000000;}
*[layerid="46"] {stroke:#000000;fill:#000000;}
*[layerid="47"] {stroke:#000000;fill:#000000;}
*[layerid="48"] {stroke:#000000;fill:#000000;}
*[layerid="49"] {stroke:#000000;fill:#000000;}
*[layerid="50"] {stroke:#000000;fill:#000000;}
*[layerid="51"] {stroke:#000000;fill:#000000;}
*[layerid="52"] {stroke:#000000;fill:#000000;}
*[fill="none"] {fill: none;}
*[stroke="none"] {stroke: none;}
path, polyline, polygon, line {stroke-linecap:round;}
g[c_partid="part_pad"][layerid="1"] ellipse:not([c_padid]) {fill:#000000;}
g[c_partid="part_pad"][layerid="1"]  polygon:not([c_padid]) {fill:#000000;}
g[c_partid="part_pad"][layerid="1"]  polyline:not([c_padid]) {stroke:#000000;}
g[c_partid="part_pad"][layerid="1"]  circle {fill:#000000;}
g[c_partid="part_pad"][layerid="2"]  ellipse:not([c_padid]) {fill:#000000;}
g[c_partid="part_pad"][layerid="2"]  polygon:not([c_padid]) {fill:#000000;}
g[c_partid="part_pad"][layerid="2"]  polyline:not([c_padid]) {stroke:#000000;}
g[c_partid="part_pad"][layerid="2"]  circle {fill:#000000;}
g[c_partid="part_pad"][layerid="11"]  ellipse:not([c_padid]) {fill:#000000;}
g[c_partid="part_pad"][layerid="11"]  polygon:not([c_padid]) {fill:#000000;}
g[c_partid="part_pad"][layerid="11"]  polyline:not([c_padid]) {stroke:#000000;}
g[c_partid="part_pad"][layerid="11"]  circle {fill:#000000;}
g[c_partid="part_pad"][layerid] > circle[c_padhole] {fill: #FFFFFF;}
g[c_partid="part_pad"][layerid] > polyline[c_padhole] {stroke:#FFFFFF;}
g[c_partid="part_via"][layerid] > * + circle {fill: #FFFFFF;}
g[c_partid="part_pad"] > polygon[c_padid] {stroke-linejoin: miter;stroke-miterlimit: 100;}
g[c_partid="part_hole"] > circle {fill: #FFFFFF;}path, polyline, polygon {stroke-linejoin:round;}
rect, circle, ellipse, polyline, line, polygon, path {shape-rendering:crispEdges;}
</style>
<rect x="4056.7" y="2980.5" width="260.1" height="143.6" fill="#FFFFFF" stroke="none"/><g id="g1" cpara="package`R0805`Contributor`layout`link`https://item.szlcsc.com/142685.html`" c_transformList="" importFlag="0" xmlns="http://www.w3.org/2000/svg"><polyline points="4077 3013 4077 2996.445" stroke-width="3.937" c_shapetype="line" stroke-linecap="round" fill="none" layerid="1" net="S$6341" id="gge8222" /><polyline points="4249.75 3022.85 4254.85 3022.85 4258 3026 4266.5 3026 4267 3026.5 4267 3063.5 4270.99 3067.5" stroke-width="1.1811" c_shapetype="line" stroke-linecap="round" fill="none" layerid="1" net="S$6341" id="gge8256" /><polyline points="4186.5 2996.445 4152.701 2996.445 4152.201 2995.945" stroke-width="6.2992" c_shapetype="line" stroke-linecap="round" fill="none" layerid="1" net="S$6341" id="gge7763" /><polyline points="4124.764 2996.445 4072.701 2996.445" stroke-width="6.2992" c_shapetype="line" stroke-linecap="round" fill="none" layerid="1" net="S$6341" id="gge7761" /><polyline points="4152.201 2996.445 4146 2996.445" stroke-width="6.2992" c_shapetype="line" stroke-linecap="round" fill="none" layerid="1" net="S$6341" id="gge7762" /><polyline points="4146 2996.445 4124.764 2996.445" stroke-width="6.2992" c_shapetype="line" stroke-linecap="round" fill="none" layerid="1" net="S$6341" id="gge8326" /><polyline points="4078.201 2996.445 4079.701 2995.445" stroke-width="1.9685" c_shapetype="line" stroke-linecap="round" fill="none" layerid="1" net="S$6341" id="gge7764" /><polyline points="4201.5 3100.945 4139.5 3100.945" stroke-width="6.2992" c_shapetype="line" stroke-linecap="round" fill="none" layerid="1" net="S$6341" id="gge7961" /><polyline points="4139.5 3100.945 4077.701 3100.945 4076.701 3101.945" stroke-width="6.2992" c_shapetype="line" stroke-linecap="round" fill="none" layerid="1" net="S$6341" id="gge7968" /><polyline points="4276.5 3101 4222 3100.965" stroke-width="6.2992" c_shapetype="line" stroke-linecap="round" fill="none" layerid="1" net="S$6341" id="gge7793" /><polyline points="4222 3100.965 4201.5 3100.945" stroke-width="6.2992" c_shapetype="line" stroke-linecap="round" fill="none" layerid="1" net="S$6341" id="gge8287" /><polyline points="4194.5 3013.126 4194.5 3004.445 4186.5 2996.445" stroke-width="3.937" c_shapetype="line" stroke-linecap="round" fill="none" layerid="1" net="S$6341" id="gge7887" /><polyline points="4142.45 3079.5 4149.45 3072.5 4172 3073.5 4175.5 3081 4179.5 3085 4201.5 3085 4201.5 3078.5 4202.5 3077.5" stroke-width="1.1811" c_shapetype="line" stroke-linecap="round" fill="none" layerid="1" net="S$6341" id="gge8153" /><polyline points="4077 3083 4077.5 3100.94" stroke-width="3.937" c_shapetype="line" stroke-linecap="round" fill="none" layerid="1" net="S$6341" id="gge8067" /><polyline points="4150.35 3016.5 4151.5 3017.65 4151.5 3031.5 4140.5 3042.5 4077.5 3042.5 4077 3043" stroke-width="2.3622" c_shapetype="line" stroke-linecap="round" fill="none" layerid="1" net="S$6341" id="gge8205" /><polyline points="4167.05 3017 4167 3015.55 4167 2998.99 4169.55 2996.44" stroke-width="3.937" c_shapetype="line" stroke-linecap="round" fill="none" layerid="1" net="S$6341" id="gge8106" /><polyline points="4158.25 3079.5 4159 3080.25 4159 3090 4159.5 3090.5" stroke-width="3.937" c_shapetype="line" stroke-linecap="round" fill="none" layerid="1" net="S$6341" id="gge8142" /><polyline points="4166.05 3079.5 4167.5 3080.95 4167.5 3090.37 4167.37 3090.5" stroke-width="3.937" c_shapetype="line" stroke-linecap="round" fill="none" layerid="1" net="S$6341" id="gge8144" /><polyline points="4167.374 3090.5 4167.374 3097.819 4170.5 3100.945" stroke-width="3.937" c_shapetype="line" stroke-linecap="round" fill="none" layerid="1" net="S$6341" id="gge8145" /><polyline points="4151.35 3080 4151.5 3080.15 4151.5 3085.5 4146 3091" stroke-width="3.937" c_shapetype="line" stroke-linecap="round" fill="none" layerid="1" net="S$6341" id="gge8152" /><polyline points="4221.5 3031 4216.5 3036 4216.5 3055 4207 3055 4201 3061 4201 3066 4202.5 3067.5" stroke-width="1.1811" c_shapetype="line" stroke-linecap="round" fill="none" layerid="1" net="S$6341" id="gge8223" /><polyline points="4134.55 3079.5 4135.5 3080.45 4135.5 3091.5 4134 3093 4087 3093 4087 3073 4077 3073" stroke-width="2.3622" c_shapetype="line" stroke-linecap="round" fill="none" layerid="1" net="S$6341" id="gge8155" /><polyline points="4128.75 3080 4127.5 3081.25 4127.5 3086.5 4126 3088 4099 3088 4097 3086 4097 3067.5 4092.5 3063 4077 3063" stroke-width="2.3622" c_shapetype="line" stroke-linecap="round" fill="none" layerid="1" net="S$6341" id="gge8159" /><polyline points="4110.95 3079.5 4113 3077.45 4113 3068.5 4124.5 3057 4172 3057 4180.998 3067.5" stroke-width="2.3622" c_shapetype="line" stroke-linecap="round" fill="none" layerid="1" net="S$5785" id="gge8164" /><polyline points="4191 3077.5 4191 3067.5" stroke-width="3.937" c_shapetype="line" stroke-linecap="round" fill="none" layerid="1" net="S$6341" id="gge8165" /><polyline points="4211 3067 4211 3077" stroke-width="3.937" c_shapetype="line" stroke-linecap="round" fill="none" layerid="1" net="S$6341" id="gge8200" /><polyline points="4211 3077.5 4211 3100.94" stroke-width="3.937" c_shapetype="line" stroke-linecap="round" fill="none" layerid="1" net="S$6341" id="gge8202" /><polyline points="4158.25 3016.5 4159.5 3016.5 4159.5 3037.5 4147.5 3049.5 4080.5 3049.5 4077 3053" stroke-width="2.3622" c_shapetype="line" stroke-linecap="round" fill="none" layerid="1" net="S$6341" id="gge8204" /><polyline points="4142.45 3016.5 4143.5 3017.55 4143.5 3027.5 4138.5 3032.5 4077.5 3032.5 4077 3033" stroke-width="2.3622" c_shapetype="line" stroke-linecap="round" fill="none" layerid="1" net="S$6341" id="gge8206" /><polyline points="4180.998 3077.5 4180.998 3077.5 4172 3067 4127 3067 4120 3074 4120 3078.35 4118.85 3079.5" stroke-width="2.3622" c_shapetype="line" stroke-linecap="round" fill="none" layerid="1" net="S$5787" id="gge8210" /><polyline points="4127.37 3006.5 4128 3007.13 4128 3017 4127.75 3017" stroke-width="3.1496" c_shapetype="line" stroke-linecap="round" fill="none" layerid="1" net="S$6341" id="gge8212" /><polyline points="4119.5 3006.5 4119.5 2999.508 4122.563 2996.445" stroke-width="3.1496" c_shapetype="line" stroke-linecap="round" fill="none" layerid="1" net="S$6341" id="gge8214" /><polyline points="4211.5 3011 4211.5 3012 4215.5 3016 4228.5 3016 4233.5 3021 4233.5 3061 4256 3061 4262.49 3067.5" stroke-width="1.1811" c_shapetype="line" stroke-linecap="round" fill="none" layerid="1" net="S$6341" id="gge8226" /><polyline points="4249.75 3007.1 4244.1 3007.1 4237.5 3000.5" stroke-width="1.1811" c_shapetype="line" stroke-linecap="round" fill="none" layerid="1" net="S$5883" id="gge8218" /><polyline points="4211.5 3041 4185.5 3041 4182 3037.5 4182 2996.445" stroke-width="3.937" c_shapetype="line" stroke-linecap="round" fill="none" layerid="1" net="S$6341" id="gge8224" /><polyline points="4211.5 3021 4194.5 3021" stroke-width="3.937" c_shapetype="line" stroke-linecap="round" fill="none" layerid="1" net="S$6341" id="gge8225" /><polyline points="4221.5 3041 4221.5 3057 4216 3062.5 4216 3072.5 4226 3072.5 4226 3080 4231 3085 4259.5 3085 4261 3083.5 4261 3079 4261.002 3077.505" stroke-width="1.1811" c_shapetype="line" stroke-linecap="round" fill="none" layerid="1" net="S$6341" id="gge8242" /><polyline points="4249.75 3020.88 4274.38 3020.88 4278 3024.5 4278 3041.063 4273.5 3045.563" stroke-width="1.1811" c_shapetype="line" stroke-linecap="round" fill="none" layerid="1" net="S$8221" id="gge8229" /><polyline points="4251.227 3077.505 4241.002 3077.505" stroke-width="3.937" c_shapetype="line" stroke-linecap="round" fill="none" layerid="1" net="S$7947" id="gge8263" /><polyline points="4221.5 3021 4224.5 3021 4228.5 3025 4228.5 3061.498 4222.498 3067.5" stroke-width="1.1811" c_shapetype="line" stroke-linecap="round" fill="none" layerid="1" net="S$6341" id="gge8237" /><polyline points="4273.5 3088.56 4273.5 3086 4279.5 3080 4279.5 3059 4273.94 3053.44 4273.5 3053.44" stroke-width="1.9685" c_shapetype="line" stroke-linecap="round" fill="none" layerid="1" net="S$6341" id="gge8254" /><polyline points="4242.49 3067.5 4252.49 3067.5" stroke-width="3.937" c_shapetype="line" stroke-linecap="round" fill="none" layerid="1" net="S$7942" id="gge8239" /><polyline points="4242.502 3077.505 4252.502 3077.505" stroke-width="1.1811" c_shapetype="line" stroke-linecap="round" fill="none" layerid="1" net="S$7947" id="gge8240" /><polyline points="4271.002 3077.505 4276.077 3077.505 4279.5 3073.982" stroke-width="1.9685" c_shapetype="line" stroke-linecap="round" fill="none" layerid="1" net="S$6341" id="gge8261" /><polyline points="4242.502 3077.505 4252.502 3077.505" stroke-width="1.1811" c_shapetype="line" stroke-linecap="round" fill="none" layerid="1" net="S$7947" id="gge8244" /><polyline points="4222.498 3077.5 4210.998 3077.5" stroke-width="3.937" c_shapetype="line" stroke-linecap="round" fill="none" layerid="1" net="S$6341" id="gge8245" /><polyline points="4187 3056.5 4187 3063.502 4190.998 3067.5" stroke-width="3.937" c_shapetype="line" stroke-linecap="round" fill="none" layerid="1" net="S$6341" id="gge8251" /><polyline points="4273.5 3099 4259 3099" stroke-width="1.1811" c_shapetype="line" stroke-linecap="round" fill="none" layerid="1" net="S$6341" id="gge8255" /><polyline points="4249.75 3026.78 4244.21 3026.78 4241.5 3029.5 4241.5 3036" stroke-width="1.1811" c_shapetype="line" stroke-linecap="round" fill="none" layerid="1" net="S$6341" id="gge8271" /><polyline points="4249.75 3024.82 4244.32 3024.82 4230.5 3011 4221.5 3011" stroke-width="1.1811" c_shapetype="line" stroke-linecap="round" fill="none" layerid="1" net="S$6341" id="gge8272" /><polyline points="4187 3048.626 4187 3041" stroke-width="3.937" c_shapetype="line" stroke-linecap="round" fill="none" layerid="1" net="S$6341" id="gge8318" /><polyline points="4221.5 2999.5 4221.5 3011" stroke-width="3.937" c_shapetype="line" stroke-linecap="round" fill="none" layerid="1" net="S$6341" id="gge8327" /><g c_partid="part_pad" c_etype="pinpart" c_origin="4237.5,3000.5" layerid="1" number="20" net="S$5883" plated ="Y" c_shapetype="group" id="gge5872" locked="0" c_rotation="0" c_width="9.8425" c_height="9.8425" title="S$5883" c_shape="ELLIPSE" pasteExpansion="0" solderExpansion="0.4"><ellipse cx="4237.5" cy="3000.5" rx="4.92125" ry="4.92125" stroke-width="0" /><circle c_padhole="1" cx="4237.5" cy="3000.5" r="0" stroke-width="0" /></g><g c_partid="part_pad" c_etype="pinpart" c_origin="4167.05,3017" layerid="1" number="9" net="S$6341" plated ="Y" c_shapetype="group" id="gge2057" locked="0" c_rotation="90" c_width="7.92" c_height="3.99" title="S$6341" c_shape="RECT" pasteExpansion="0" solderExpansion="0.4"><polygon points="4165.055 3020.96 4165.055 3013.04 4169.045 3013.04 4169.045 3020.96" stroke-width="0" /><circle c_padhole="1" cx="4167.05" cy="3017" r="0" stroke-width="0" /></g><g c_partid="part_pad" c_etype="pinpart" c_origin="4159.25,3017" layerid="1" number="10" net="S$6341" plated ="Y" c_shapetype="group" id="gge2062" locked="0" c_rotation="90" c_width="7.92" c_height="3.99" title="S$6341" c_shape="RECT" pasteExpansion="0" solderExpansion="0.4"><polygon points="4157.255 3020.96 4157.255 3013.04 4161.245 3013.04 4161.245 3020.96" stroke-width="0" /><circle c_padhole="1" cx="4159.25" cy="3017" r="0" stroke-width="0" /></g><g c_partid="part_pad" c_etype="pinpart" c_origin="4151.35,3017" layerid="1" number="11" net="S$6341" plated ="Y" c_shapetype="group" id="gge2067" locked="0" c_rotation="90" c_width="7.92" c_height="3.99" title="S$6341" c_shape="RECT" pasteExpansion="0" solderExpansion="0.4"><polygon points="4149.355 3020.96 4149.355 3013.04 4153.345 3013.04 4153.345 3020.96" stroke-width="0" /><circle c_padhole="1" cx="4151.35" cy="3017" r="0" stroke-width="0" /></g><g c_partid="part_pad" c_etype="pinpart" c_origin="4143.45,3017" layerid="1" number="12" net="S$6341" plated ="Y" c_shapetype="group" id="gge2072" locked="0" c_rotation="90" c_width="7.92" c_height="3.99" title="S$6341" c_shape="RECT" pasteExpansion="0" solderExpansion="0.4"><polygon points="4141.455 3020.96 4141.455 3013.04 4145.445 3013.04 4145.445 3020.96" stroke-width="0" /><circle c_padhole="1" cx="4143.45" cy="3017" r="0" stroke-width="0" /></g><g c_partid="part_pad" c_etype="pinpart" c_origin="4135.55,3017" layerid="1" number="13" net="S$6341" plated ="Y" c_shapetype="group" id="gge2077" locked="0" c_rotation="90" c_width="7.92" c_height="3.99" title="S$6341" c_shape="RECT" pasteExpansion="0" solderExpansion="0.4"><polygon points="4133.555 3020.96 4133.555 3013.04 4137.545 3013.04 4137.545 3020.96" stroke-width="0" /><circle c_padhole="1" cx="4135.55" cy="3017" r="0" stroke-width="0" /></g><g c_partid="part_pad" c_etype="pinpart" c_origin="4127.75,3017" layerid="1" number="14" net="S$6341" plated ="Y" c_shapetype="group" id="gge2082" locked="0" c_rotation="90" c_width="7.92" c_height="3.99" title="S$6341" c_shape="RECT" pasteExpansion="0" solderExpansion="0.4"><polygon points="4125.755 3020.96 4125.755 3013.04 4129.745 3013.04 4129.745 3020.96" stroke-width="0" /><circle c_padhole="1" cx="4127.75" cy="3017" r="0" stroke-width="0" /></g><g c_partid="part_pad" c_etype="pinpart" c_origin="4119.85,3017" layerid="1" number="15" net="S$5787" plated ="Y" c_shapetype="group" id="gge2087" locked="0" c_rotation="90" c_width="7.92" c_height="3.99" title="S$5787" c_shape="RECT" pasteExpansion="0" solderExpansion="0.4"><polygon points="4117.855 3020.96 4117.855 3013.04 4121.845 3013.04 4121.845 3020.96" stroke-width="0" /><circle c_padhole="1" cx="4119.85" cy="3017" r="0" stroke-width="0" /></g><g c_partid="part_pad" c_etype="pinpart" c_origin="4111.95,3017" layerid="1" number="16" net="S$5785" plated ="Y" c_shapetype="group" id="gge2092" locked="0" c_rotation="90" c_width="7.92" c_height="3.99" title="S$5785" c_shape="RECT" pasteExpansion="0" solderExpansion="0.4"><polygon points="4109.955 3020.96 4109.955 3013.04 4113.945 3013.04 4113.945 3020.96" stroke-width="0" /><circle c_padhole="1" cx="4111.95" cy="3017" r="0" stroke-width="0" /></g><g c_partid="part_pad" c_etype="pinpart" c_origin="4111.95,3080" layerid="1" number="1" net="S$5785" plated ="Y" c_shapetype="group" id="gge2097" locked="0" c_rotation="90" c_width="7.92" c_height="3.99" title="S$5785" c_shape="RECT" pasteExpansion="0" solderExpansion="0.4"><polygon points="4109.955 3083.96 4109.955 3076.04 4113.945 3076.04 4113.945 3083.96" stroke-width="0" /><circle c_padhole="1" cx="4111.95" cy="3080" r="0" stroke-width="0" /></g><g c_partid="part_pad" c_etype="pinpart" c_origin="4119.85,3080" layerid="1" number="2" net="S$5787" plated ="Y" c_shapetype="group" id="gge2102" locked="0" c_rotation="90" c_width="7.92" c_height="3.99" title="S$5787" c_shape="RECT" pasteExpansion="0" solderExpansion="0.4"><polygon points="4117.855 3083.96 4117.855 3076.04 4121.845 3076.04 4121.845 3083.96" stroke-width="0" /><circle c_padhole="1" cx="4119.85" cy="3080" r="0" stroke-width="0" /></g><g c_partid="part_pad" c_etype="pinpart" c_origin="4127.75,3080" layerid="1" number="3" net="S$6341" plated ="Y" c_shapetype="group" id="gge2107" locked="0" c_rotation="90" c_width="7.92" c_height="3.99" title="S$6341" c_shape="RECT" pasteExpansion="0" solderExpansion="0.4"><polygon points="4125.755 3083.96 4125.755 3076.04 4129.745 3076.04 4129.745 3083.96" stroke-width="0" /><circle c_padhole="1" cx="4127.75" cy="3080" r="0" stroke-width="0" /></g><g c_partid="part_pad" c_etype="pinpart" c_origin="4135.55,3080" layerid="1" number="4" net="S$6341" plated ="Y" c_shapetype="group" id="gge2112" locked="0" c_rotation="90" c_width="7.92" c_height="3.99" title="S$6341" c_shape="RECT" pasteExpansion="0" solderExpansion="0.4"><polygon points="4133.555 3083.96 4133.555 3076.04 4137.545 3076.04 4137.545 3083.96" stroke-width="0" /><circle c_padhole="1" cx="4135.55" cy="3080" r="0" stroke-width="0" /></g><g c_partid="part_pad" c_etype="pinpart" c_origin="4143.45,3080" layerid="1" number="5" net="S$6341" plated ="Y" c_shapetype="group" id="gge2117" locked="0" c_rotation="90" c_width="7.92" c_height="3.99" title="S$6341" c_shape="RECT" pasteExpansion="0" solderExpansion="0.4"><polygon points="4141.455 3083.96 4141.455 3076.04 4145.445 3076.04 4145.445 3083.96" stroke-width="0" /><circle c_padhole="1" cx="4143.45" cy="3080" r="0" stroke-width="0" /></g><g c_partid="part_pad" c_etype="pinpart" c_origin="4151.35,3080" layerid="1" number="6" net="S$6341" plated ="Y" c_shapetype="group" id="gge2122" locked="0" c_rotation="90" c_width="7.92" c_height="3.99" title="S$6341" c_shape="RECT" pasteExpansion="0" solderExpansion="0.4"><polygon points="4149.355 3083.96 4149.355 3076.04 4153.345 3076.04 4153.345 3083.96" stroke-width="0" /><circle c_padhole="1" cx="4151.35" cy="3080" r="0" stroke-width="0" /></g><g c_partid="part_pad" c_etype="pinpart" c_origin="4159.25,3080" layerid="1" number="7" net="S$6341" plated ="Y" c_shapetype="group" id="gge2127" locked="0" c_rotation="90" c_width="7.92" c_height="3.99" title="S$6341" c_shape="RECT" pasteExpansion="0" solderExpansion="0.4"><polygon points="4157.255 3083.96 4157.255 3076.04 4161.245 3076.04 4161.245 3083.96" stroke-width="0" /><circle c_padhole="1" cx="4159.25" cy="3080" r="0" stroke-width="0" /></g><g c_partid="part_pad" c_etype="pinpart" c_origin="4167.05,3080" layerid="1" number="8" net="S$6341" plated ="Y" c_shapetype="group" id="gge2132" locked="0" c_rotation="90" c_width="7.92" c_height="3.99" title="S$6341" c_shape="RECT" pasteExpansion="0" solderExpansion="0.4"><polygon points="4165.055 3083.96 4165.055 3076.04 4169.045 3076.04 4169.045 3083.96" stroke-width="0" /><circle c_padhole="1" cx="4167.05" cy="3080" r="0" stroke-width="0" /></g><g c_partid="part_pad" c_etype="pinpart" c_origin="4249.75,3007.1" layerid="1" number="1" net="S$5883" plated ="Y" c_shapetype="group" id="gge3697" locked="0" c_rotation="270" c_width="1.181" c_height="5.9055" title="S$5883" c_shape="RECT" pasteExpansion="0" solderExpansion="0.4"><polygon points="4252.705 3006.511 4252.705 3007.693 4246.799 3007.693 4246.799 3006.511" stroke-width="0" /><circle c_padhole="1" cx="4249.7517" cy="3007.1023" r="0" stroke-width="0" /></g><g c_partid="part_pad" c_etype="pinpart" c_origin="4249.75,3009.07" layerid="1" number="2" net="S$5883" plated ="Y" c_shapetype="group" id="gge3702" locked="0" c_rotation="270" c_width="1.181" c_height="5.9055" title="S$5883" c_shape="RECT" pasteExpansion="0" solderExpansion="0.4"><polygon points="4252.705 3008.478 4252.705 3009.66 4246.799 3009.66 4246.799 3008.478" stroke-width="0" /><circle c_padhole="1" cx="4249.7517" cy="3009.0693" r="0" stroke-width="0" /></g><g c_partid="part_pad" c_etype="pinpart" c_origin="4249.75,3011.04" layerid="1" number="3" net="S$6341" plated ="Y" c_shapetype="group" id="gge3707" locked="0" c_rotation="270" c_width="1.181" c_height="5.9055" title="S$6341" c_shape="RECT" pasteExpansion="0" solderExpansion="0.4"><polygon points="4252.705 3010.446 4252.705 3011.628 4246.799 3011.628 4246.799 3010.446" stroke-width="0" /><circle c_padhole="1" cx="4249.7517" cy="3011.0373" r="0" stroke-width="0" /></g><g c_partid="part_pad" c_etype="pinpart" c_origin="4249.75,3013.01" layerid="1" number="4" net="S$6341" plated ="Y" c_shapetype="group" id="gge3712" locked="0" c_rotation="270" c_width="1.181" c_height="5.9055" title="S$6341" c_shape="RECT" pasteExpansion="0" solderExpansion="0.4"><polygon points="4252.705 3012.415 4252.705 3013.597 4246.799 3013.597 4246.799 3012.415" stroke-width="0" /><circle c_padhole="1" cx="4249.7517" cy="3013.0063" r="0" stroke-width="0" /></g><g c_partid="part_pad" c_etype="pinpart" c_origin="4249.75,3014.97" layerid="1" number="5" net="S$8221" plated ="Y" c_shapetype="group" id="gge3717" locked="0" c_rotation="270" c_width="1.181" c_height="5.9055" title="S$8221" c_shape="RECT" pasteExpansion="0" solderExpansion="0.4"><polygon points="4252.705 3014.383 4252.705 3015.565 4246.799 3015.565 4246.799 3014.383" stroke-width="0" /><circle c_padhole="1" cx="4249.7517" cy="3014.9743" r="0" stroke-width="0" /></g><g c_partid="part_pad" c_etype="pinpart" c_origin="4249.75,3016.94" layerid="1" number="6" net="" plated ="Y" c_shapetype="group" id="gge3722" locked="0" c_rotation="270" c_width="1.181" c_height="5.9055" title="" c_shape="RECT" pasteExpansion="0" solderExpansion="0.4"><polygon points="4252.705 3016.352 4252.705 3017.534 4246.799 3017.534 4246.799 3016.352" stroke-width="0" /><circle c_padhole="1" cx="4249.7517" cy="3016.9433" r="0" stroke-width="0" /></g><g c_partid="part_pad" c_etype="pinpart" c_origin="4249.75,3018.91" layerid="1" number="7" net="" plated ="Y" c_shapetype="group" id="gge3727" locked="0" c_rotation="270" c_width="1.181" c_height="5.9055" title="" c_shape="RECT" pasteExpansion="0" solderExpansion="0.4"><polygon points="4252.705 3018.32 4252.705 3019.502 4246.799 3019.502 4246.799 3018.32" stroke-width="0" /><circle c_padhole="1" cx="4249.7517" cy="3018.9113" r="0" stroke-width="0" /></g><g c_partid="part_pad" c_etype="pinpart" c_origin="4249.75,3020.88" layerid="1" number="8" net="S$8221" plated ="Y" c_shapetype="group" id="gge3732" locked="0" c_rotation="270" c_width="1.181" c_height="5.9055" title="S$8221" c_shape="RECT" pasteExpansion="0" solderExpansion="0.4"><polygon points="4252.705 3020.289 4252.705 3021.471 4246.799 3021.471 4246.799 3020.289" stroke-width="0" /><circle c_padhole="1" cx="4249.7517" cy="3020.8803" r="0" stroke-width="0" /></g><g c_partid="part_pad" c_etype="pinpart" c_origin="4249.75,3022.85" layerid="1" number="9" net="S$6341" plated ="Y" c_shapetype="group" id="gge3737" locked="0" c_rotation="270" c_width="1.181" c_height="5.9055" title="S$6341" c_shape="RECT" pasteExpansion="0" solderExpansion="0.4"><polygon points="4252.705 3022.257 4252.705 3023.439 4246.799 3023.439 4246.799 3022.257" stroke-width="0" /><circle c_padhole="1" cx="4249.7517" cy="3022.8483" r="0" stroke-width="0" /></g><g c_partid="part_pad" c_etype="pinpart" c_origin="4249.75,3024.82" layerid="1" number="10" net="S$6341" plated ="Y" c_shapetype="group" id="gge3742" locked="0" c_rotation="270" c_width="1.181" c_height="5.9055" title="S$6341" c_shape="RECT" pasteExpansion="0" solderExpansion="0.4"><polygon points="4252.705 3024.226 4252.705 3025.408 4246.799 3025.408 4246.799 3024.226" stroke-width="0" /><circle c_padhole="1" cx="4249.7517" cy="3024.8173" r="0" stroke-width="0" /></g><g c_partid="part_pad" c_etype="pinpart" c_origin="4249.75,3026.79" layerid="1" number="11" net="S$6341" plated ="Y" c_shapetype="group" id="gge3747" locked="0" c_rotation="270" c_width="1.181" c_height="5.9055" title="S$6341" c_shape="RECT" pasteExpansion="0" solderExpansion="0.4"><polygon points="4252.705 3026.194 4252.705 3027.376 4246.799 3027.376 4246.799 3026.194" stroke-width="0" /><circle c_padhole="1" cx="4249.7517" cy="3026.7853" r="0" stroke-width="0" /></g><g c_partid="part_pad" c_etype="pinpart" c_origin="4249.75,3028.75" layerid="1" number="12" net="S$6462" plated ="Y" c_shapetype="group" id="gge3752" locked="0" c_rotation="270" c_width="1.181" c_height="5.9055" title="S$6462" c_shape="RECT" pasteExpansion="0" solderExpansion="0.4"><polygon points="4252.705 3028.163 4252.705 3029.345 4246.799 3029.345 4246.799 3028.163" stroke-width="0" /><circle c_padhole="1" cx="4249.7517" cy="3028.7543" r="0" stroke-width="0" /></g><g c_partid="part_pad" c_etype="pinpart" c_origin="4258.63,3000.5" layerid="1" number="13" net="" plated ="Y" c_shapetype="group" id="gge3757" locked="0" c_rotation="270" c_width="7.874" c_height="11.811" title="" c_shape="RECT" pasteExpansion="0" solderExpansion="0.4"><polygon points="4264.532 2996.567 4264.532 3004.441 4252.721 3004.441 4252.721 2996.567" stroke-width="0" /><circle c_padhole="1" cx="4258.6267" cy="3000.5043" r="0" stroke-width="0" /></g><g c_partid="part_pad" c_etype="pinpart" c_origin="4258.65,3035.39" layerid="1" number="14" net="" plated ="Y" c_shapetype="group" id="gge3762" locked="0" c_rotation="90" c_width="7.874" c_height="11.811" title="" c_shape="RECT" pasteExpansion="0" solderExpansion="0.4"><polygon points="4252.745 3039.322 4252.745 3031.448 4264.555 3031.448 4264.555 3039.322" stroke-width="0" /><circle c_padhole="1" cx="4258.6497" cy="3035.3853" r="0" stroke-width="0" /></g><g c_partid="part_pad" c_etype="pinpart" c_origin="4273.5,3045.56" layerid="1" number="2" net="S$8221" plated ="Y" c_shapetype="group" id="gge6110" locked="0" c_rotation="90" c_width="3.937" c_height="6.1024" title="S$8221" c_shape="RECT" pasteExpansion="0" solderExpansion="0.4"><polygon points="4270.449 3047.532 4270.449 3043.595 4276.551 3043.595 4276.551 3047.532" stroke-width="0" /><circle c_padhole="1" cx="4273.5" cy="3045.563" r="0" stroke-width="0" /></g><g c_partid="part_pad" c_etype="pinpart" c_origin="4273.5,3053.44" layerid="1" number="1" net="S$6341" plated ="Y" c_shapetype="group" id="gge6115" locked="0" c_rotation="90" c_width="3.937" c_height="6.1024" title="S$6341" c_shape="RECT" pasteExpansion="0" solderExpansion="0.4"><polygon points="4270.449 3055.406 4270.449 3051.469 4276.551 3051.469 4276.551 3055.406" stroke-width="0" /><circle c_padhole="1" cx="4273.5" cy="3053.437" r="0" stroke-width="0" /></g><g c_partid="part_pad" c_etype="pinpart" c_origin="4273.5,3088.56" layerid="1" number="2" net="S$6341" plated ="Y" c_shapetype="group" id="gge6131" locked="0" c_rotation="90" c_width="3.937" c_height="6.1024" title="S$6341" c_shape="RECT" pasteExpansion="0" solderExpansion="0.4"><polygon points="4270.449 3090.532 4270.449 3086.595 4276.551 3086.595 4276.551 3090.532" stroke-width="0" /><circle c_padhole="1" cx="4273.5" cy="3088.563" r="0" stroke-width="0" /></g><g c_partid="part_pad" c_etype="pinpart" c_origin="4273.5,3096.44" layerid="1" number="1" net="S$6341" plated ="Y" c_shapetype="group" id="gge6136" locked="0" c_rotation="90" c_width="3.937" c_height="6.1024" title="S$6341" c_shape="RECT" pasteExpansion="0" solderExpansion="0.4"><polygon points="4270.449 3098.406 4270.449 3094.469 4276.551 3094.469 4276.551 3098.406" stroke-width="0" /><circle c_padhole="1" cx="4273.5" cy="3096.437" r="0" stroke-width="0" /></g><g c_partid="part_pad" c_etype="pinpart" c_origin="4194.5,3013.13" layerid="1" number="2" net="S$6341" plated ="Y" c_shapetype="group" id="gge6269" locked="0" c_rotation="90" c_width="3.937" c_height="6.1024" title="S$6341" c_shape="RECT" pasteExpansion="0" solderExpansion="0.4"><polygon points="4191.449 3015.095 4191.449 3011.158 4197.551 3011.158 4197.551 3015.095" stroke-width="0" /><circle c_padhole="1" cx="4194.5" cy="3013.126" r="0" stroke-width="0" /></g><g c_partid="part_pad" c_etype="pinpart" c_origin="4194.5,3021" layerid="1" number="1" net="S$6341" plated ="Y" c_shapetype="group" id="gge6274" locked="0" c_rotation="90" c_width="3.937" c_height="6.1024" title="S$6341" c_shape="RECT" pasteExpansion="0" solderExpansion="0.4"><polygon points="4191.449 3022.969 4191.449 3019.032 4197.551 3019.032 4197.551 3022.969" stroke-width="0" /><circle c_padhole="1" cx="4194.5" cy="3021" r="0" stroke-width="0" /></g><g c_partid="part_pad" c_etype="pinpart" c_origin="4187,3048.63" layerid="1" number="2" net="S$6341" plated ="Y" c_shapetype="group" id="gge6379" locked="0" c_rotation="90" c_width="3.937" c_height="6.1024" title="S$6341" c_shape="RECT" pasteExpansion="0" solderExpansion="0.4"><polygon points="4183.949 3050.595 4183.949 3046.658 4190.051 3046.658 4190.051 3050.595" stroke-width="0" /><circle c_padhole="1" cx="4187" cy="3048.626" r="0" stroke-width="0" /></g><g c_partid="part_pad" c_etype="pinpart" c_origin="4187,3056.5" layerid="1" number="1" net="S$6341" plated ="Y" c_shapetype="group" id="gge6385" locked="0" c_rotation="90" c_width="3.937" c_height="6.1024" title="S$6341" c_shape="RECT" pasteExpansion="0" solderExpansion="0.4"><polygon points="4183.949 3058.469 4183.949 3054.532 4190.051 3054.532 4190.051 3058.469" stroke-width="0" /><circle c_padhole="1" cx="4187" cy="3056.5" r="0" stroke-width="0" /></g><g c_partid="part_pad" c_etype="pinpart" c_origin="4127.37,3006.5" layerid="1" number="2" net="S$6341" plated ="Y" c_shapetype="group" id="gge6520" locked="0" c_rotation="0" c_width="3.937" c_height="6.1024" title="S$6341" c_shape="RECT" pasteExpansion="0" solderExpansion="0.4"><polygon points="4125.406 3003.449 4129.342 3003.449 4129.342 3009.551 4125.406 3009.551" stroke-width="0" /><circle c_padhole="1" cx="4127.374" cy="3006.5" r="0" stroke-width="0" /></g><g c_partid="part_pad" c_etype="pinpart" c_origin="4119.5,3006.5" layerid="1" number="1" net="S$6341" plated ="Y" c_shapetype="group" id="gge6526" locked="0" c_rotation="0" c_width="3.937" c_height="6.1024" title="S$6341" c_shape="RECT" pasteExpansion="0" solderExpansion="0.4"><polygon points="4117.532 3003.449 4121.469 3003.449 4121.469 3009.551 4117.532 3009.551" stroke-width="0" /><circle c_padhole="1" cx="4119.5" cy="3006.5" r="0" stroke-width="0" /></g><g c_partid="part_pad" c_etype="pinpart" c_origin="4159.5,3090.5" layerid="1" number="2" net="S$6341" plated ="Y" c_shapetype="group" id="gge8122" locked="0" c_rotation="180" c_width="3.937" c_height="6.1024" title="S$6341" c_shape="RECT" pasteExpansion="0" solderExpansion="0.4"><polygon points="4161.469 3093.551 4157.532 3093.551 4157.532 3087.449 4161.469 3087.449" stroke-width="0" /><circle c_padhole="1" cx="4159.5" cy="3090.5" r="0" stroke-width="0" /></g><g c_partid="part_pad" c_etype="pinpart" c_origin="4167.37,3090.5" layerid="1" number="1" net="S$6341" plated ="Y" c_shapetype="group" id="gge8128" locked="0" c_rotation="180" c_width="3.937" c_height="6.1024" title="S$6341" c_shape="RECT" pasteExpansion="0" solderExpansion="0.4"><polygon points="4169.342 3093.551 4165.406 3093.551 4165.406 3087.449 4169.342 3087.449" stroke-width="0" /><circle c_padhole="1" cx="4167.374" cy="3090.5" r="0" stroke-width="0" /></g><g c_partid="part_pad" c_etype="pinpart" c_origin="4139.5,3100.95" layerid="11" number="7" net="S$6341" plated ="Y" c_shapetype="group" id="gge7962" locked="0" c_rotation="270" c_width="7.0866" c_height="7.0866" title="S$6341" c_shape="ELLIPSE" pasteExpansion="0" solderExpansion="0.4"><ellipse cx="4139.5" cy="3100.95" rx="3.5433" ry="3.5433" stroke-width="0" /><circle c_padhole="1" cx="4139.5" cy="3100.9448" r="1.5748" stroke-width="0" /></g><g c_partid="part_pad" c_etype="pinpart" c_origin="4146,3091" layerid="11" number="7" net="S$6341" plated ="Y" c_shapetype="group" id="gge8146" locked="0" c_rotation="270" c_width="7.0866" c_height="7.0866" title="S$6341" c_shape="ELLIPSE" pasteExpansion="0" solderExpansion="0.4"><ellipse cx="4146" cy="3091" rx="3.5433" ry="3.5433" stroke-width="0" /><circle c_padhole="1" cx="4146" cy="3090.9998" r="1.5748" stroke-width="0" /></g><g c_partid="part_pad" c_etype="pinpart" c_origin="4241.5,3036" layerid="11" number="3" net="S$6341" plated ="Y" c_shapetype="group" id="gge8265" locked="0" c_rotation="270" c_width="7.0866" c_height="7.0866" title="S$6341" c_shape="ELLIPSE" pasteExpansion="0" solderExpansion="0.4"><ellipse cx="4241.5" cy="3036" rx="3.5433" ry="3.5433" stroke-width="0" /><circle c_padhole="1" cx="4241.5" cy="3036" r="1.9685" stroke-width="0" /></g><g c_partid="part_pad" c_etype="pinpart" c_origin="4221.5,2999.5" layerid="11" number="3" net="S$6341" plated ="Y" c_shapetype="group" id="gge8304" locked="0" c_rotation="270" c_width="7.0866" c_height="7.0866" title="S$6341" c_shape="ELLIPSE" pasteExpansion="0" solderExpansion="0.4"><ellipse cx="4221.5" cy="2999.5" rx="3.5433" ry="3.5433" stroke-width="0" /><circle c_padhole="1" cx="4221.5" cy="2999.5" r="1.9685" stroke-width="0" /></g><g c_partid="part_pad" c_etype="pinpart" c_origin="4146,2996.45" layerid="11" number="7" net="S$6341" plated ="Y" c_shapetype="group" id="gge8320" locked="0" c_rotation="270" c_width="7.0866" c_height="7.0866" title="S$6341" c_shape="ELLIPSE" pasteExpansion="0" solderExpansion="0.4"><ellipse cx="4146" cy="2996.45" rx="3.5433" ry="3.5433" stroke-width="0" /><circle c_padhole="1" cx="4146" cy="2996.4446" r="1.5748" stroke-width="0" /></g><g c_partid="part_pad" c_etype="pinpart" c_origin="4221.5,3011" layerid="11" number="1" net="S$6341" plated ="Y" c_shapetype="group" id="gge1218" locked="0" c_rotation="270" c_width="5.9055" c_height="5.9055" title="S$6341" c_shape="RECT" pasteExpansion="0" solderExpansion="0.4"><polygon points="4224.453 3008.047 4224.453 3013.953 4218.547 3013.953 4218.547 3008.047" stroke-width="0" /><circle c_padhole="1" cx="4221.5" cy="3011" r="1.9685" stroke-width="0" /></g><g c_partid="part_pad" c_etype="pinpart" c_origin="4221.5,3021" layerid="11" number="2" net="S$6341" plated ="Y" c_shapetype="group" id="gge1223" locked="0" c_rotation="270" c_width="5.9055" c_height="5.9055" title="S$6341" c_shape="RECT" pasteExpansion="0" solderExpansion="0.4"><polygon points="4224.453 3018.047 4224.453 3023.953 4218.547 3023.953 4218.547 3018.047" stroke-width="0" /><circle c_padhole="1" cx="4221.5" cy="3021" r="1.9685" stroke-width="0" /></g><g c_partid="part_pad" c_etype="pinpart" c_origin="4221.5,3031" layerid="11" number="3" net="S$6341" plated ="Y" c_shapetype="group" id="gge1228" locked="0" c_rotation="270" c_width="7.0866" c_height="7.0866" title="S$6341" c_shape="ELLIPSE" pasteExpansion="0" solderExpansion="0.4"><ellipse cx="4221.5" cy="3031" rx="3.5433" ry="3.5433" stroke-width="0" /><circle c_padhole="1" cx="4221.5" cy="3031" r="1.9685" stroke-width="0" /></g><g c_partid="part_pad" c_etype="pinpart" c_origin="4221.5,3041" layerid="11" number="4" net="S$6341" plated ="Y" c_shapetype="group" id="gge1233" locked="0" c_rotation="270" c_width="5.9055" c_height="5.9055" title="S$6341" c_shape="POLYGON" pasteExpansion="0" solderExpansion="0.4"><polygon points="4218.547 3038.047 4224.453 3038.047 4224.453 3043.953 4218.547 3043.953" stroke-width="0" /><circle c_padhole="1" cx="4221.5" cy="3041" r="1.9685" stroke-width="0" /></g><g c_partid="part_pad" c_etype="pinpart" c_origin="4211.5,3041" layerid="11" number="5" net="S$6341" plated ="Y" c_shapetype="group" id="gge1238" locked="0" c_rotation="270" c_width="5.9055" c_height="5.9055" title="S$6341" c_shape="RECT" pasteExpansion="0" solderExpansion="0.4"><polygon points="4214.453 3038.047 4214.453 3043.953 4208.547 3043.953 4208.547 3038.047" stroke-width="0" /><circle c_padhole="1" cx="4211.5" cy="3041" r="1.9685" stroke-width="0" /></g><g c_partid="part_pad" c_etype="pinpart" c_origin="4211.5,3031" layerid="11" number="6" net="" plated ="Y" c_shapetype="group" id="gge1243" locked="0" c_rotation="270" c_width="7.0866" c_height="7.0866" title="" c_shape="ELLIPSE" pasteExpansion="0" solderExpansion="0.4"><ellipse cx="4211.5" cy="3031" rx="3.5433" ry="3.5433" stroke-width="0" /><circle c_padhole="1" cx="4211.5" cy="3031" r="1.9685" stroke-width="0" /></g><g c_partid="part_pad" c_etype="pinpart" c_origin="4211.5,3021" layerid="11" number="7" net="S$6341" plated ="Y" c_shapetype="group" id="gge1248" locked="0" c_rotation="270" c_width="7.0866" c_height="7.0866" title="S$6341" c_shape="ELLIPSE" pasteExpansion="0" solderExpansion="0.4"><ellipse cx="4211.5" cy="3021" rx="3.5433" ry="3.5433" stroke-width="0" /><circle c_padhole="1" cx="4211.5" cy="3021" r="1.9685" stroke-width="0" /></g><g c_partid="part_pad" c_etype="pinpart" c_origin="4211.5,3011" layerid="11" number="8" net="S$6341" plated ="Y" c_shapetype="group" id="gge1253" locked="0" c_rotation="270" c_width="5.9055" c_height="5.9055" title="S$6341" c_shape="RECT" pasteExpansion="0" solderExpansion="0.4"><polygon points="4214.453 3008.047 4214.453 3013.953 4208.547 3013.953 4208.547 3008.047" stroke-width="0" /><circle c_padhole="1" cx="4211.5" cy="3011" r="1.9685" stroke-width="0" /></g><g c_partid="part_pad" c_etype="pinpart" c_origin="4077,3083" layerid="11" number="1" net="" plated ="Y" c_shapetype="group" id="gge5635" locked="0" c_rotation="90" c_width="7" c_height="7" title="" c_shape="RECT" pasteExpansion="0" solderExpansion="0.4"><polygon points="4073.5 3086.5 4073.5 3079.5 4080.5 3079.5 4080.5 3086.5" stroke-width="0" /><circle c_padhole="1" cx="4077" cy="3083" r="2" stroke-width="0" /></g><g c_partid="part_pad" c_etype="pinpart" c_origin="4077,3073" layerid="11" number="2" net="S$6341" plated ="Y" c_shapetype="group" id="gge5640" locked="0" c_rotation="90" c_width="7" c_height="7" title="S$6341" c_shape="ELLIPSE" pasteExpansion="0" solderExpansion="0.4"><ellipse cx="4077" cy="3073" rx="3.5" ry="3.5" stroke-width="0" /><circle c_padhole="1" cx="4077" cy="3073" r="2" stroke-width="0" /></g><g c_partid="part_pad" c_etype="pinpart" c_origin="4077,3063" layerid="11" number="3" net="S$6341" plated ="Y" c_shapetype="group" id="gge5645" locked="0" c_rotation="90" c_width="7" c_height="7" title="S$6341" c_shape="ELLIPSE" pasteExpansion="0" solderExpansion="0.4"><ellipse cx="4077" cy="3063" rx="3.5" ry="3.5" stroke-width="0" /><circle c_padhole="1" cx="4077" cy="3063" r="2" stroke-width="0" /></g><g c_partid="part_pad" c_etype="pinpart" c_origin="4077,3053" layerid="11" number="4" net="S$6341" plated ="Y" c_shapetype="group" id="gge5650" locked="0" c_rotation="90" c_width="7" c_height="7" title="S$6341" c_shape="ELLIPSE" pasteExpansion="0" solderExpansion="0.4"><ellipse cx="4077" cy="3053" rx="3.5" ry="3.5" stroke-width="0" /><circle c_padhole="1" cx="4077" cy="3053" r="2" stroke-width="0" /></g><g c_partid="part_pad" c_etype="pinpart" c_origin="4077,3043" layerid="11" number="5" net="S$6341" plated ="Y" c_shapetype="group" id="gge5655" locked="0" c_rotation="90" c_width="7" c_height="7" title="S$6341" c_shape="ELLIPSE" pasteExpansion="0" solderExpansion="0.4"><ellipse cx="4077" cy="3043" rx="3.5" ry="3.5" stroke-width="0" /><circle c_padhole="1" cx="4077" cy="3043" r="2" stroke-width="0" /></g><g c_partid="part_pad" c_etype="pinpart" c_origin="4077,3033" layerid="11" number="6" net="S$6341" plated ="Y" c_shapetype="group" id="gge5660" locked="0" c_rotation="90" c_width="7" c_height="7" title="S$6341" c_shape="ELLIPSE" pasteExpansion="0" solderExpansion="0.4"><ellipse cx="4077" cy="3033" rx="3.5" ry="3.5" stroke-width="0" /><circle c_padhole="1" cx="4077" cy="3033" r="2" stroke-width="0" /></g><g c_partid="part_pad" c_etype="pinpart" c_origin="4077,3023" layerid="11" number="7" net="S$6341" plated ="Y" c_shapetype="group" id="gge5665" locked="0" c_rotation="90" c_width="7" c_height="7" title="S$6341" c_shape="ELLIPSE" pasteExpansion="0" solderExpansion="0.4"><ellipse cx="4077" cy="3023" rx="3.5" ry="3.5" stroke-width="0" /><circle c_padhole="1" cx="4077" cy="3023" r="2" stroke-width="0" /></g><g c_partid="part_pad" c_etype="pinpart" c_origin="4077,3013" layerid="11" number="8" net="S$6341" plated ="Y" c_shapetype="group" id="gge5670" locked="0" c_rotation="90" c_width="7" c_height="7" title="S$6341" c_shape="ELLIPSE" pasteExpansion="0" solderExpansion="0.4"><ellipse cx="4077" cy="3013" rx="3.5" ry="3.5" stroke-width="0" /><circle c_padhole="1" cx="4077" cy="3013" r="2" stroke-width="0" /></g><g c_partid="part_pad" c_etype="pinpart" c_origin="4231,3077.51" layerid="11" number="10" net="" plated ="Y" c_shapetype="group" id="gge7353" locked="0" c_rotation="180" c_width="6.2992" c_height="6.2992" title="" c_shape="ELLIPSE" pasteExpansion="0" solderExpansion="0.4"><ellipse cx="4231" cy="3077.51" rx="3.1496" ry="3.1496" stroke-width="0" /><circle c_padhole="1" cx="4231.002" cy="3077.505" r="1.9685" stroke-width="0" /></g><g c_partid="part_pad" c_etype="pinpart" c_origin="4230.99,3067.5" layerid="11" number="9" net="" plated ="Y" c_shapetype="group" id="gge7358" locked="0" c_rotation="180" c_width="6.2992" c_height="6.2992" title="" c_shape="ELLIPSE" pasteExpansion="0" solderExpansion="0.4"><ellipse cx="4230.99" cy="3067.5" rx="3.1496" ry="3.1496" stroke-width="0" /><circle c_padhole="1" cx="4230.994" cy="3067.499" r="1.9685" stroke-width="0" /></g><g c_partid="part_pad" c_etype="pinpart" c_origin="4241,3077.51" layerid="11" number="8" net="S$7947" plated ="Y" c_shapetype="group" id="gge7363" locked="0" c_rotation="180" c_width="6.2992" c_height="6.2992" title="S$7947" c_shape="ELLIPSE" pasteExpansion="0" solderExpansion="0.4"><ellipse cx="4241" cy="3077.51" rx="3.1496" ry="3.1496" stroke-width="0" /><circle c_padhole="1" cx="4241.002" cy="3077.505" r="1.9685" stroke-width="0" /></g><g c_partid="part_pad" c_etype="pinpart" c_origin="4240.99,3067.5" layerid="11" number="7" net="S$7942" plated ="Y" c_shapetype="group" id="gge7368" locked="0" c_rotation="180" c_width="6.2992" c_height="6.2992" title="S$7942" c_shape="ELLIPSE" pasteExpansion="0" solderExpansion="0.4"><ellipse cx="4240.99" cy="3067.5" rx="3.1496" ry="3.1496" stroke-width="0" /><circle c_padhole="1" cx="4240.994" cy="3067.499" r="1.9685" stroke-width="0" /></g><g c_partid="part_pad" c_etype="pinpart" c_origin="4251,3077.51" layerid="11" number="6" net="S$7947" plated ="Y" c_shapetype="group" id="gge7373" locked="0" c_rotation="180" c_width="6.2992" c_height="6.2992" title="S$7947" c_shape="ELLIPSE" pasteExpansion="0" solderExpansion="0.4"><ellipse cx="4251" cy="3077.51" rx="3.1496" ry="3.1496" stroke-width="0" /><circle c_padhole="1" cx="4251.002" cy="3077.505" r="1.9685" stroke-width="0" /></g><g c_partid="part_pad" c_etype="pinpart" c_origin="4250.99,3067.5" layerid="11" number="5" net="S$7942" plated ="Y" c_shapetype="group" id="gge7378" locked="0" c_rotation="180" c_width="6.2992" c_height="6.2992" title="S$7942" c_shape="ELLIPSE" pasteExpansion="0" solderExpansion="0.4"><ellipse cx="4250.99" cy="3067.5" rx="3.1496" ry="3.1496" stroke-width="0" /><circle c_padhole="1" cx="4250.994" cy="3067.499" r="1.9685" stroke-width="0" /></g><g c_partid="part_pad" c_etype="pinpart" c_origin="4261,3077.51" layerid="11" number="4" net="S$6341" plated ="Y" c_shapetype="group" id="gge7383" locked="0" c_rotation="180" c_width="6.2992" c_height="6.2992" title="S$6341" c_shape="ELLIPSE" pasteExpansion="0" solderExpansion="0.4"><ellipse cx="4261" cy="3077.51" rx="3.1496" ry="3.1496" stroke-width="0" /><circle c_padhole="1" cx="4261.002" cy="3077.505" r="1.9685" stroke-width="0" /></g><g c_partid="part_pad" c_etype="pinpart" c_origin="4260.99,3067.5" layerid="11" number="3" net="S$6341" plated ="Y" c_shapetype="group" id="gge7388" locked="0" c_rotation="180" c_width="6.2992" c_height="6.2992" title="S$6341" c_shape="ELLIPSE" pasteExpansion="0" solderExpansion="0.4"><ellipse cx="4260.99" cy="3067.5" rx="3.1496" ry="3.1496" stroke-width="0" /><circle c_padhole="1" cx="4260.994" cy="3067.499" r="1.9685" stroke-width="0" /></g><g c_partid="part_pad" c_etype="pinpart" c_origin="4271,3077.51" layerid="11" number="2" net="S$6341" plated ="Y" c_shapetype="group" id="gge7393" locked="0" c_rotation="180" c_width="6.2992" c_height="6.2992" title="S$6341" c_shape="ELLIPSE" pasteExpansion="0" solderExpansion="0.4"><ellipse cx="4271" cy="3077.51" rx="3.1496" ry="3.1496" stroke-width="0" /><circle c_padhole="1" cx="4271.002" cy="3077.505" r="1.9685" stroke-width="0" /></g><g c_partid="part_pad" c_etype="pinpart" c_origin="4270.99,3067.5" layerid="11" number="1" net="S$6341" plated ="Y" c_shapetype="group" id="gge7398" locked="0" c_rotation="180" c_width="6.2992" c_height="6" title="S$6341" c_shape="RECT" pasteExpansion="0" solderExpansion="0.4"><polygon points="4274.142 3070.495 4267.842 3070.495 4267.842 3064.495 4274.142 3064.495" stroke-width="0" /><circle c_padhole="1" cx="4270.992" cy="3067.495" r="1.9685" stroke-width="0" /></g><g c_partid="part_pad" c_etype="pinpart" c_origin="4221,3067.5" layerid="11" number="11" net="S$6341" plated ="Y" c_shapetype="group" id="gge7403" locked="0" c_rotation="0" c_width="6.2992" c_height="6.2992" title="S$6341" c_shape="ELLIPSE" pasteExpansion="0" solderExpansion="0.4"><ellipse cx="4221" cy="3067.5" rx="3.1496" ry="3.1496" stroke-width="0" /><circle c_padhole="1" cx="4220.998" cy="3067.5" r="1.9685" stroke-width="0" /></g><g c_partid="part_pad" c_etype="pinpart" c_origin="4221,3077.5" layerid="11" number="12" net="S$6341" plated ="Y" c_shapetype="group" id="gge7408" locked="0" c_rotation="0" c_width="6.2992" c_height="6.2992" title="S$6341" c_shape="ELLIPSE" pasteExpansion="0" solderExpansion="0.4"><ellipse cx="4221" cy="3077.5" rx="3.1496" ry="3.1496" stroke-width="0" /><circle c_padhole="1" cx="4220.998" cy="3077.5" r="1.9685" stroke-width="0" /></g><g c_partid="part_pad" c_etype="pinpart" c_origin="4211,3067.5" layerid="11" number="13" net="S$6341" plated ="Y" c_shapetype="group" id="gge7413" locked="0" c_rotation="0" c_width="6.2992" c_height="6.2992" title="S$6341" c_shape="ELLIPSE" pasteExpansion="0" solderExpansion="0.4"><ellipse cx="4211" cy="3067.5" rx="3.1496" ry="3.1496" stroke-width="0" /><circle c_padhole="1" cx="4210.998" cy="3067.5" r="1.9685" stroke-width="0" /></g><g c_partid="part_pad" c_etype="pinpart" c_origin="4211,3077.5" layerid="11" number="14" net="S$6341" plated ="Y" c_shapetype="group" id="gge7418" locked="0" c_rotation="0" c_width="6.2992" c_height="6.2992" title="S$6341" c_shape="ELLIPSE" pasteExpansion="0" solderExpansion="0.4"><ellipse cx="4211" cy="3077.5" rx="3.1496" ry="3.1496" stroke-width="0" /><circle c_padhole="1" cx="4210.998" cy="3077.5" r="1.9685" stroke-width="0" /></g><g c_partid="part_pad" c_etype="pinpart" c_origin="4201,3067.5" layerid="11" number="15" net="S$6341" plated ="Y" c_shapetype="group" id="gge7423" locked="0" c_rotation="0" c_width="6.2992" c_height="6.2992" title="S$6341" c_shape="ELLIPSE" pasteExpansion="0" solderExpansion="0.4"><ellipse cx="4201" cy="3067.5" rx="3.1496" ry="3.1496" stroke-width="0" /><circle c_padhole="1" cx="4200.998" cy="3067.5" r="1.9685" stroke-width="0" /></g><g c_partid="part_pad" c_etype="pinpart" c_origin="4201,3077.5" layerid="11" number="16" net="S$6341" plated ="Y" c_shapetype="group" id="gge7428" locked="0" c_rotation="0" c_width="6.2992" c_height="6.2992" title="S$6341" c_shape="ELLIPSE" pasteExpansion="0" solderExpansion="0.4"><ellipse cx="4201" cy="3077.5" rx="3.1496" ry="3.1496" stroke-width="0" /><circle c_padhole="1" cx="4200.998" cy="3077.5" r="1.9685" stroke-width="0" /></g><g c_partid="part_pad" c_etype="pinpart" c_origin="4191,3067.5" layerid="11" number="17" net="S$6341" plated ="Y" c_shapetype="group" id="gge7433" locked="0" c_rotation="0" c_width="6.2992" c_height="6.2992" title="S$6341" c_shape="ELLIPSE" pasteExpansion="0" solderExpansion="0.4"><ellipse cx="4191" cy="3067.5" rx="3.1496" ry="3.1496" stroke-width="0" /><circle c_padhole="1" cx="4190.998" cy="3067.5" r="1.9685" stroke-width="0" /></g><g c_partid="part_pad" c_etype="pinpart" c_origin="4191,3077.5" layerid="11" number="18" net="S$6341" plated ="Y" c_shapetype="group" id="gge7438" locked="0" c_rotation="0" c_width="6.2992" c_height="6.2992" title="S$6341" c_shape="ELLIPSE" pasteExpansion="0" solderExpansion="0.4"><ellipse cx="4191" cy="3077.5" rx="3.1496" ry="3.1496" stroke-width="0" /><circle c_padhole="1" cx="4190.998" cy="3077.5" r="1.9685" stroke-width="0" /></g><g c_partid="part_pad" c_etype="pinpart" c_origin="4181,3067.5" layerid="11" number="19" net="S$5785" plated ="Y" c_shapetype="group" id="gge7443" locked="0" c_rotation="0" c_width="6.2992" c_height="6.2992" title="S$5785" c_shape="ELLIPSE" pasteExpansion="0" solderExpansion="0.4"><ellipse cx="4181" cy="3067.5" rx="3.1496" ry="3.1496" stroke-width="0" /><circle c_padhole="1" cx="4180.998" cy="3067.5" r="1.9685" stroke-width="0" /></g><g c_partid="part_pad" c_etype="pinpart" c_origin="4181,3077.5" layerid="11" number="20" net="S$5787" plated ="Y" c_shapetype="group" id="gge7448" locked="0" c_rotation="0" c_width="6.2992" c_height="6.2992" title="S$5787" c_shape="ELLIPSE" pasteExpansion="0" solderExpansion="0.4"><ellipse cx="4181" cy="3077.5" rx="3.1496" ry="3.1496" stroke-width="0" /><circle c_padhole="1" cx="4180.998" cy="3077.5" r="1.9685" stroke-width="0" /></g><polyline points="4206.5 2996 4206.5 3055" stroke-width="1" c_shapetype="line" stroke-linecap="round" fill="none" layerid="3" net="" id="gge1213" /><polyline points="4206.5 3056 4301.5 3056" stroke-width="1" c_shapetype="line" stroke-linecap="round" fill="none" layerid="3" net="" id="gge1214" /><polyline points="4301.5 3056 4301.5 2996 4206.5 2996" stroke-width="1" c_shapetype="line" stroke-linecap="round" fill="none" layerid="3" net="" id="gge1215" /><polyline points="4271.5 3006 4296.5 3006 4296.5 3011 4286.5 3011 4286.5 3016 4296.5 3016 4296.5 3021 4286.5 3021 4286.5 3026 4296.5 3026 4296.5 3041" stroke-width="1" c_shapetype="line" stroke-linecap="round" fill="none" layerid="3" net="" id="gge1216" /><polyline points="4266.5 3001 4266.5 3051 4231.5 3051 4231.5 3001 4266.5 3001" stroke-width="1" c_shapetype="line" stroke-linecap="round" fill="none" layerid="3" net="" id="gge1217" /><polyline points="4086.75 3080 4173.35 3080 4173.35 3017 4086.75 3017 4086.75 3080" stroke-width="1" c_shapetype="line" stroke-linecap="round" fill="none" layerid="3" net="" id="gge2056" /><polyline points="4251.727 2995.282 4272.79 2995.282" stroke-width="1" c_shapetype="line" stroke-linecap="round" fill="none" layerid="3" net="" id="gge3691" /><polyline points="4251.727 3040.597 4251.727 2995.314" stroke-width="1" c_shapetype="line" stroke-linecap="round" fill="none" layerid="3" net="" id="gge3692" /><polyline points="4272.79 3040.636 4272.79 2995.353" stroke-width="1" c_shapetype="line" stroke-linecap="round" fill="none" layerid="3" net="" id="gge3693" /><polyline points="4251.727 2997.25 4272.79 2997.25" stroke-width="1" c_shapetype="line" stroke-linecap="round" fill="none" layerid="3" net="" id="gge3694" /><polyline points="4251.727 3040.636 4272.79 3040.636" stroke-width="1" c_shapetype="line" stroke-linecap="round" fill="none" layerid="3" net="" id="gge3695" /><polyline points="4251.723 3038.507 4272.785 3038.507" stroke-width="1" c_shapetype="line" stroke-linecap="round" fill="none" layerid="3" net="" id="gge3696" /><polyline points="4072 3008 4082 3008 4082 3088 4072 3088 4072 3080.5" stroke-width="0.8" c_shapetype="line" stroke-linecap="round" fill="none" layerid="3" net="" id="gge5633" /><polyline points="4072 3008 4072 3080.5" stroke-width="0.79921" c_shapetype="line" stroke-linecap="round" fill="none" layerid="3" net="" id="gge5634" /><polyline points="4269.484 3051.469 4269.484 3056.39" stroke-width="1" c_shapetype="line" stroke-linecap="round" fill="none" layerid="3" net="" id="gge6104" /><polyline points="4277.516 3051.469 4277.516 3056.39" stroke-width="1" c_shapetype="line" stroke-linecap="round" fill="none" layerid="3" net="" id="gge6105" /><polyline points="4269.484 3047.532 4269.484 3042.61" stroke-width="1" c_shapetype="line" stroke-linecap="round" fill="none" layerid="3" net="" id="gge6106" /><polyline points="4277.516 3047.532 4277.516 3042.61" stroke-width="1" c_shapetype="line" stroke-linecap="round" fill="none" layerid="3" net="" id="gge6107" /><polyline points="4269.484 3056.39 4277.516 3056.39" stroke-width="1" c_shapetype="line" stroke-linecap="round" fill="none" layerid="3" net="" id="gge6108" /><polyline points="4269.484 3042.61 4277.516 3042.61" stroke-width="1" c_shapetype="line" stroke-linecap="round" fill="none" layerid="3" net="" id="gge6109" /><polyline points="4269.484 3094.469 4269.484 3099.39" stroke-width="1" c_shapetype="line" stroke-linecap="round" fill="none" layerid="3" net="" id="gge6125" /><polyline points="4277.516 3094.469 4277.516 3099.39" stroke-width="1" c_shapetype="line" stroke-linecap="round" fill="none" layerid="3" net="" id="gge6126" /><polyline points="4269.484 3090.532 4269.484 3085.61" stroke-width="1" c_shapetype="line" stroke-linecap="round" fill="none" layerid="3" net="" id="gge6127" /><polyline points="4277.516 3090.532 4277.516 3085.61" stroke-width="1" c_shapetype="line" stroke-linecap="round" fill="none" layerid="3" net="" id="gge6128" /><polyline points="4269.484 3099.39 4277.516 3099.39" stroke-width="1" c_shapetype="line" stroke-linecap="round" fill="none" layerid="3" net="" id="gge6129" /><polyline points="4269.484 3085.61 4277.516 3085.61" stroke-width="1" c_shapetype="line" stroke-linecap="round" fill="none" layerid="3" net="" id="gge6130" /><polyline points="4190.484 3019.032 4190.484 3023.953" stroke-width="1" c_shapetype="line" stroke-linecap="round" fill="none" layerid="3" net="" id="gge6263" /><polyline points="4198.516 3019.032 4198.516 3023.953" stroke-width="1" c_shapetype="line" stroke-linecap="round" fill="none" layerid="3" net="" id="gge6264" /><polyline points="4190.484 3015.095 4190.484 3010.173" stroke-width="1" c_shapetype="line" stroke-linecap="round" fill="none" layerid="3" net="" id="gge6265" /><polyline points="4198.516 3015.095 4198.516 3010.173" stroke-width="1" c_shapetype="line" stroke-linecap="round" fill="none" layerid="3" net="" id="gge6266" /><polyline points="4190.484 3023.953 4198.516 3023.953" stroke-width="1" c_shapetype="line" stroke-linecap="round" fill="none" layerid="3" net="" id="gge6267" /><polyline points="4190.484 3010.173 4198.516 3010.173" stroke-width="1" c_shapetype="line" stroke-linecap="round" fill="none" layerid="3" net="" id="gge6268" /><polyline points="4182.984 3054.532 4182.984 3059.453" stroke-width="1" c_shapetype="line" stroke-linecap="round" fill="none" layerid="3" net="" id="gge6373" /><polyline points="4191.016 3054.532 4191.016 3059.453" stroke-width="1" c_shapetype="line" stroke-linecap="round" fill="none" layerid="3" net="" id="gge6374" /><polyline points="4182.984 3050.595 4182.984 3045.673" stroke-width="1" c_shapetype="line" stroke-linecap="round" fill="none" layerid="3" net="" id="gge6375" /><polyline points="4191.016 3050.595 4191.016 3045.673" stroke-width="1" c_shapetype="line" stroke-linecap="round" fill="none" layerid="3" net="" id="gge6376" /><polyline points="4182.984 3059.453 4191.016 3059.453" stroke-width="1" c_shapetype="line" stroke-linecap="round" fill="none" layerid="3" net="" id="gge6377" /><polyline points="4182.984 3045.673 4191.016 3045.673" stroke-width="1" c_shapetype="line" stroke-linecap="round" fill="none" layerid="3" net="" id="gge6378" /><polyline points="4121.469 3002.484 4116.547 3002.484" stroke-width="1" c_shapetype="line" stroke-linecap="round" fill="none" layerid="3" net="" id="gge6514" /><polyline points="4121.469 3010.516 4116.547 3010.516" stroke-width="1" c_shapetype="line" stroke-linecap="round" fill="none" layerid="3" net="" id="gge6515" /><polyline points="4125.406 3002.484 4130.327 3002.484" stroke-width="1" c_shapetype="line" stroke-linecap="round" fill="none" layerid="3" net="" id="gge6516" /><polyline points="4125.406 3010.516 4130.327 3010.516" stroke-width="1" c_shapetype="line" stroke-linecap="round" fill="none" layerid="3" net="" id="gge6517" /><polyline points="4116.547 3002.484 4116.547 3010.516" stroke-width="1" c_shapetype="line" stroke-linecap="round" fill="none" layerid="3" net="" id="gge6518" /><polyline points="4130.327 3002.484 4130.327 3010.516" stroke-width="1" c_shapetype="line" stroke-linecap="round" fill="none" layerid="3" net="" id="gge6519" /><polyline points="4216.04 3104.118 4235.961 3104.118 4235.961 3113.882 4216.04 3113.882 4216.04 3104.118" stroke-width="1" c_shapetype="line" stroke-linecap="round" fill="none" layerid="3" net="" id="gge7349" /><polyline points="4161 3077.504 4290.998 3077.504 4290.998 3114.118 4161 3114.118 4161 3077.504" stroke-width="1" c_shapetype="line" stroke-linecap="round" fill="none" layerid="3" net="" id="gge7351" /><polyline points="4265.998 3062.502 4275.998 3062.502 4275.998 3072.502 4265.998 3072.502 4265.998 3062.502" stroke-width="1" c_shapetype="line" stroke-linecap="round" fill="none" layerid="3" net="" id="gge7352" /><polyline points="4165.406 3094.516 4170.327 3094.516" stroke-width="1" c_shapetype="line" stroke-linecap="round" fill="none" layerid="3" net="" id="gge8116" /><polyline points="4165.406 3086.484 4170.327 3086.484" stroke-width="1" c_shapetype="line" stroke-linecap="round" fill="none" layerid="3" net="" id="gge8117" /><polyline points="4161.469 3094.516 4156.547 3094.516" stroke-width="1" c_shapetype="line" stroke-linecap="round" fill="none" layerid="3" net="" id="gge8118" /><polyline points="4161.469 3086.484 4156.547 3086.484" stroke-width="1" c_shapetype="line" stroke-linecap="round" fill="none" layerid="3" net="" id="gge8119" /><polyline points="4170.327 3094.516 4170.327 3086.484" stroke-width="1" c_shapetype="line" stroke-linecap="round" fill="none" layerid="3" net="" id="gge8120" /><polyline points="4156.547 3094.516 4156.547 3086.484" stroke-width="1" c_shapetype="line" stroke-linecap="round" fill="none" layerid="3" net="" id="gge8121" /><g c_partid="part_pcbtext" c_origin="4308.65,3035.86" c_rotation="90" c_mirror="" id="gge1209" layerid="3" c_shapetype="group" ><path c_fontSize="4.5" c_fontFamily="" c_text="MK1" d="M 4302.5 3035.8599 L 4306.79 3035.8599 M 4302.5 3035.8599 L 4306.79 3034.2199 M 4302.5 3032.5899 L 4306.79 3034.2199 M 4302.5 3032.5899 L 4306.79 3032.5899 M 4302.5 3031.2399 L 4306.79 3031.2399 M 4302.5 3028.3699 L 4305.36 3031.2399 M 4304.34 3030.2099 L 4306.79 3028.3699 M 4303.31 3027.0199 L 4303.11 3026.6099 L 4302.5 3025.9999 L 4306.79 3025.9999" fill="none"  stroke-width="0.6" c_note="note_pre" /></g><g c_partid="part_pcbtext" c_origin="4306.14,3026" c_rotation="270" c_mirror="" id="gge1211" layerid="3" c_shapetype="group" display="none"><path c_fontSize="4.5" c_fontFamily="" c_text="ESP-01S" d="M 4312.29 3026 L 4308 3026 M 4312.29 3026 L 4312.29 3028.66 M 4310.25 3026 L 4310.25 3027.64 M 4308 3026 L 4308 3028.66 M 4311.68 3032.87 L 4312.09 3032.46 L 4312.29 3031.85 L 4312.29 3031.03 L 4312.09 3030.42 L 4311.68 3030.01 L 4311.27 3030.01 L 4310.86 3030.21 L 4310.66 3030.42 L 4310.45 3030.83 L 4310.04 3032.05 L 4309.84 3032.46 L 4309.64 3032.67 L 4309.23 3032.87 L 4308.61 3032.87 L 4308.2 3032.46 L 4308 3031.85 L 4308 3031.03 L 4308.2 3030.42 L 4308.61 3030.01 M 4312.29 3034.22 L 4308 3034.22 M 4312.29 3034.22 L 4312.29 3036.06 L 4312.09 3036.68 L 4311.89 3036.88 L 4311.48 3037.09 L 4310.86 3037.09 L 4310.45 3036.88 L 4310.25 3036.68 L 4310.04 3036.06 L 4310.04 3034.22 M 4309.84 3038.44 L 4309.84 3042.12 M 4312.29 3044.7 L 4312.09 3044.08 L 4311.48 3043.67 L 4310.45 3043.47 L 4309.84 3043.47 L 4308.82 3043.67 L 4308.2 3044.08 L 4308 3044.7 L 4308 3045.1 L 4308.2 3045.72 L 4308.82 3046.13 L 4309.84 3046.33 L 4310.45 3046.33 L 4311.48 3046.13 L 4312.09 3045.72 L 4312.29 3045.1 L 4312.29 3044.7 M 4311.48 3047.68 L 4311.68 3048.09 L 4312.29 3048.7 L 4308 3048.7 M 4311.68 3052.92 L 4312.09 3052.51 L 4312.29 3051.9 L 4312.29 3051.08 L 4312.09 3050.46 L 4311.68 3050.05 L 4311.27 3050.05 L 4310.86 3050.26 L 4310.66 3050.46 L 4310.45 3050.87 L 4310.04 3052.1 L 4309.84 3052.51 L 4309.64 3052.71 L 4309.23 3052.92 L 4308.61 3052.92 L 4308.2 3052.51 L 4308 3051.9 L 4308 3051.08 L 4308.2 3050.46 L 4308.61 3050.05" fill="none"  stroke-width="0.6"  /></g><g c_partid="part_pcbtext" c_origin="4246.5,3011" c_rotation="270" c_mirror="none" id="gge1258" layerid="3" c_shapetype="group" ><path c_fontSize="5" c_fontFamily="" c_text="ESP-01S" d="M 4249.23 3011 L 4244.45 3011 M 4249.23 3011 L 4249.23 3013.95 M 4246.95 3011 L 4246.95 3012.82 M 4244.45 3011 L 4244.45 3013.95 M 4248.55 3018.64 L 4249 3018.18 L 4249.23 3017.5 L 4249.23 3016.59 L 4249 3015.91 L 4248.55 3015.45 L 4248.09 3015.45 L 4247.64 3015.68 L 4247.41 3015.91 L 4247.18 3016.36 L 4246.73 3017.73 L 4246.5 3018.18 L 4246.27 3018.41 L 4245.82 3018.64 L 4245.14 3018.64 L 4244.68 3018.18 L 4244.45 3017.5 L 4244.45 3016.59 L 4244.68 3015.91 L 4245.14 3015.45 M 4249.23 3020.14 L 4244.45 3020.14 M 4249.23 3020.14 L 4249.23 3022.18 L 4249 3022.86 L 4248.77 3023.09 L 4248.32 3023.32 L 4247.64 3023.32 L 4247.18 3023.09 L 4246.95 3022.86 L 4246.73 3022.18 L 4246.73 3020.14 M 4246.5 3024.82 L 4246.5 3028.91 M 4249.23 3031.77 L 4249 3031.09 L 4248.32 3030.64 L 4247.18 3030.41 L 4246.5 3030.41 L 4245.36 3030.64 L 4244.68 3031.09 L 4244.45 3031.77 L 4244.45 3032.23 L 4244.68 3032.91 L 4245.36 3033.36 L 4246.5 3033.59 L 4247.18 3033.59 L 4248.32 3033.36 L 4249 3032.91 L 4249.23 3032.23 L 4249.23 3031.77 M 4248.32 3035.09 L 4248.55 3035.55 L 4249.23 3036.23 L 4244.45 3036.23 M 4248.55 3040.91 L 4249 3040.45 L 4249.23 3039.77 L 4249.23 3038.86 L 4249 3038.18 L 4248.55 3037.73 L 4248.09 3037.73 L 4247.64 3037.95 L 4247.41 3038.18 L 4247.18 3038.64 L 4246.73 3040 L 4246.5 3040.45 L 4246.27 3040.68 L 4245.82 3040.91 L 4245.14 3040.91 L 4244.68 3040.45 L 4244.45 3039.77 L 4244.45 3038.86 L 4244.68 3038.18 L 4245.14 3037.73" fill="none"  stroke-width="0.8"  /></g><g c_partid="part_pcbtext" c_origin="4129.15,3013.9" c_rotation="0" c_mirror="" id="gge2052" layerid="3" c_shapetype="group" ><path c_fontSize="4.5" c_fontFamily="" c_text="U1" d="M 4129.1498 3007.75 L 4129.1498 3010.81 L 4129.3498 3011.43 L 4129.7598 3011.84 L 4130.3798 3012.04 L 4130.7898 3012.04 L 4131.3998 3011.84 L 4131.8098 3011.43 L 4132.0098 3010.81 L 4132.0098 3007.75 M 4133.3598 3008.56 L 4133.7698 3008.36 L 4134.3898 3007.75 L 4134.3898 3012.04" fill="none"  stroke-width="0.6" c_note="note_pre" /></g><g c_partid="part_pcbtext" c_origin="4129.15,3008.4" c_rotation="0" c_mirror="" id="gge2054" layerid="3" c_shapetype="group" display="none"><path c_fontSize="4.5" c_fontFamily="" c_text="ESP-07" d="M 4129.15 3002.25 L 4129.15 3006.54 M 4129.15 3002.25 L 4131.81 3002.25 M 4129.15 3004.29 L 4130.79 3004.29 M 4129.15 3006.54 L 4131.81 3006.54 M 4136.02 3002.86 L 4135.61 3002.45 L 4135 3002.25 L 4134.18 3002.25 L 4133.57 3002.45 L 4133.16 3002.86 L 4133.16 3003.27 L 4133.36 3003.68 L 4133.57 3003.88 L 4133.98 3004.09 L 4135.2 3004.5 L 4135.61 3004.7 L 4135.82 3004.9 L 4136.02 3005.31 L 4136.02 3005.93 L 4135.61 3006.34 L 4135 3006.54 L 4134.18 3006.54 L 4133.57 3006.34 L 4133.16 3005.93 M 4137.37 3002.25 L 4137.37 3006.54 M 4137.37 3002.25 L 4139.21 3002.25 L 4139.83 3002.45 L 4140.03 3002.65 L 4140.24 3003.06 L 4140.24 3003.68 L 4140.03 3004.09 L 4139.83 3004.29 L 4139.21 3004.5 L 4137.37 3004.5 M 4141.59 3004.7 L 4145.27 3004.7 M 4147.85 3002.25 L 4147.23 3002.45 L 4146.82 3003.06 L 4146.62 3004.09 L 4146.62 3004.7 L 4146.82 3005.72 L 4147.23 3006.34 L 4147.85 3006.54 L 4148.25 3006.54 L 4148.87 3006.34 L 4149.28 3005.72 L 4149.48 3004.7 L 4149.48 3004.09 L 4149.28 3003.06 L 4148.87 3002.45 L 4148.25 3002.25 L 4147.85 3002.25 M 4153.7 3002.25 L 4151.65 3006.54 M 4150.83 3002.25 L 4153.7 3002.25" fill="none"  stroke-width="0.6"  /></g><g c_partid="part_pcbtext" c_origin="4247.66,3018.02" c_rotation="90" c_mirror="" id="gge3687" layerid="3" c_shapetype="group" ><path c_fontSize="4.5" c_fontFamily="" c_text="P1" d="M 4241.5022 3018.0193 L 4245.8022 3018.0193 M 4241.5022 3018.0193 L 4241.5022 3016.1793 L 4241.7122 3015.5693 L 4241.9122 3015.3593 L 4242.3222 3015.1593 L 4242.9322 3015.1593 L 4243.3422 3015.3593 L 4243.5522 3015.5693 L 4243.7522 3016.1793 L 4243.7522 3018.0193 M 4242.3222 3013.8093 L 4242.1222 3013.3993 L 4241.5022 3012.7893 L 4245.8022 3012.7893" fill="none"  stroke-width="0.6" c_note="note_pre" /></g><g c_partid="part_pcbtext" c_origin="4242.16,3018.02" c_rotation="90" c_mirror="" id="gge3689" layerid="3" c_shapetype="group" display="none"><path c_fontSize="4.5" c_fontFamily="" c_text="FPC-SMD_12P-L11.5-W5.4-P0.50" d="M 4236.0007 3018.0213 L 4240.3007 3018.0213 M 4236.0007 3018.0213 L 4236.0007 3015.3613 M 4238.0507 3018.0213 L 4238.0507 3016.3813 M 4236.0007 3014.0113 L 4240.3007 3014.0113 M 4236.0007 3014.0113 L 4236.0007 3012.1713 L 4236.2107 3011.5613 L 4236.4107 3011.3513 L 4236.8207 3011.1513 L 4237.4407 3011.1513 L 4237.8407 3011.3513 L 4238.0507 3011.5613 L 4238.2507 3012.1713 L 4238.2507 3014.0113 M 4237.0307 3006.7313 L 4236.6207 3006.9313 L 4236.2107 3007.3413 L 4236.0007 3007.7513 L 4236.0007 3008.5713 L 4236.2107 3008.9813 L 4236.6207 3009.3913 L 4237.0307 3009.5913 L 4237.6407 3009.8013 L 4238.6607 3009.8013 L 4239.2807 3009.5913 L 4239.6907 3009.3913 L 4240.0907 3008.9813 L 4240.3007 3008.5713 L 4240.3007 3007.7513 L 4240.0907 3007.3413 L 4239.6907 3006.9313 L 4239.2807 3006.7313 M 4238.4607 3005.3813 L 4238.4607 3001.7013 M 4236.6207 2997.4813 L 4236.2107 2997.8913 L 4236.0007 2998.5113 L 4236.0007 2999.3213 L 4236.2107 2999.9413 L 4236.6207 3000.3513 L 4237.0307 3000.3513 L 4237.4407 3000.1413 L 4237.6407 2999.9413 L 4237.8407 2999.5313 L 4238.2507 2998.3013 L 4238.4607 2997.8913 L 4238.6607 2997.6913 L 4239.0707 2997.4813 L 4239.6907 2997.4813 L 4240.0907 2997.8913 L 4240.3007 2998.5113 L 4240.3007 2999.3213 L 4240.0907 2999.9413 L 4239.6907 3000.3513 M 4236.0007 2996.1313 L 4240.3007 2996.1313 M 4236.0007 2996.1313 L 4240.3007 2994.5013 M 4236.0007 2992.8613 L 4240.3007 2994.5013 M 4236.0007 2992.8613 L 4240.3007 2992.8613 M 4236.0007 2991.5113 L 4240.3007 2991.5113 M 4236.0007 2991.5113 L 4236.0007 2990.0813 L 4236.2107 2989.4713 L 4236.6207 2989.0613 L 4237.0307 2988.8513 L 4237.6407 2988.6513 L 4238.6607 2988.6513 L 4239.2807 2988.8513 L 4239.6907 2989.0613 L 4240.0907 2989.4713 L 4240.3007 2990.0813 L 4240.3007 2991.5113 M 4241.7307 2987.3013 L 4241.7307 2983.6213 M 4236.8207 2982.2713 L 4236.6207 2981.8613 L 4236.0007 2981.2413 L 4240.3007 2981.2413 M 4237.0307 2979.6913 L 4236.8207 2979.6913 L 4236.4107 2979.4813 L 4236.2107 2979.2813 L 4236.0007 2978.8713 L 4236.0007 2978.0513 L 4236.2107 2977.6413 L 4236.4107 2977.4413 L 4236.8207 2977.2313 L 4237.2307 2977.2313 L 4237.6407 2977.4413 L 4238.2507 2977.8513 L 4240.3007 2979.8913 L 4240.3007 2977.0313 M 4236.0007 2975.6813 L 4240.3007 2975.6813 M 4236.0007 2975.6813 L 4236.0007 2973.8413 L 4236.2107 2973.2213 L 4236.4107 2973.0213 L 4236.8207 2972.8213 L 4237.4407 2972.8213 L 4237.8407 2973.0213 L 4238.0507 2973.2213 L 4238.2507 2973.8413 L 4238.2507 2975.6813 M 4238.4607 2971.4713 L 4238.4607 2967.7813 M 4236.0007 2966.4313 L 4240.3007 2966.4313 M 4240.3007 2966.4313 L 4240.3007 2963.9813 M 4236.8207 2962.6313 L 4236.6207 2962.2213 L 4236.0007 2961.6113 L 4240.3007 2961.6113 M 4236.8207 2960.2613 L 4236.6207 2959.8513 L 4236.0007 2959.2313 L 4240.3007 2959.2313 M 4239.2807 2957.6813 L 4239.4807 2957.8813 L 4239.6907 2957.6813 L 4239.4807 2957.4713 L 4239.2807 2957.6813 M 4236.0007 2953.6713 L 4236.0007 2955.7213 L 4237.8407 2955.9213 L 4237.6407 2955.7213 L 4237.4407 2955.1013 L 4237.4407 2954.4913 L 4237.6407 2953.8713 L 4238.0507 2953.4713 L 4238.6607 2953.2613 L 4239.0707 2953.2613 L 4239.6907 2953.4713 L 4240.0907 2953.8713 L 4240.3007 2954.4913 L 4240.3007 2955.1013 L 4240.0907 2955.7213 L 4239.8907 2955.9213 L 4239.4807 2956.1213 M 4238.4607 2951.9113 L 4238.4607 2948.2313 M 4236.0007 2946.8813 L 4240.3007 2945.8613 M 4236.0007 2944.8313 L 4240.3007 2945.8613 M 4236.0007 2944.8313 L 4240.3007 2943.8113 M 4236.0007 2942.7913 L 4240.3007 2943.8113 M 4236.0007 2938.9813 L 4236.0007 2941.0313 L 4237.8407 2941.2313 L 4237.6407 2941.0313 L 4237.4407 2940.4213 L 4237.4407 2939.8013 L 4237.6407 2939.1913 L 4238.0507 2938.7813 L 4238.6607 2938.5713 L 4239.0707 2938.5713 L 4239.6907 2938.7813 L 4240.0907 2939.1913 L 4240.3007 2939.8013 L 4240.3007 2940.4213 L 4240.0907 2941.0313 L 4239.8907 2941.2313 L 4239.4807 2941.4413 M 4239.2807 2937.0213 L 4239.4807 2937.2213 L 4239.6907 2937.0213 L 4239.4807 2936.8213 L 4239.2807 2937.0213 M 4236.0007 2933.4213 L 4238.8707 2935.4713 L 4238.8707 2932.4013 M 4236.0007 2933.4213 L 4240.3007 2933.4213 M 4238.4607 2931.0513 L 4238.4607 2927.3713 M 4236.0007 2926.0213 L 4240.3007 2926.0213 M 4236.0007 2926.0213 L 4236.0007 2924.1713 L 4236.2107 2923.5613 L 4236.4107 2923.3613 L 4236.8207 2923.1513 L 4237.4407 2923.1513 L 4237.8407 2923.3613 L 4238.0507 2923.5613 L 4238.2507 2924.1713 L 4238.2507 2926.0213 M 4236.0007 2920.5713 L 4236.2107 2921.1913 L 4236.8207 2921.6013 L 4237.8407 2921.8013 L 4238.4607 2921.8013 L 4239.4807 2921.6013 L 4240.0907 2921.1913 L 4240.3007 2920.5713 L 4240.3007 2920.1713 L 4240.0907 2919.5513 L 4239.4807 2919.1413 L 4238.4607 2918.9413 L 4237.8407 2918.9413 L 4236.8207 2919.1413 L 4236.2107 2919.5513 L 4236.0007 2920.1713 L 4236.0007 2920.5713 M 4239.2807 2917.3813 L 4239.4807 2917.5913 L 4239.6907 2917.3813 L 4239.4807 2917.1813 L 4239.2807 2917.3813 M 4236.0007 2913.3713 L 4236.0007 2915.4213 L 4237.8407 2915.6213 L 4237.6407 2915.4213 L 4237.4407 2914.8113 L 4237.4407 2914.1913 L 4237.6407 2913.5813 L 4238.0507 2913.1713 L 4238.6607 2912.9713 L 4239.0707 2912.9713 L 4239.6907 2913.1713 L 4240.0907 2913.5813 L 4240.3007 2914.1913 L 4240.3007 2914.8113 L 4240.0907 2915.4213 L 4239.8907 2915.6213 L 4239.4807 2915.8313 M 4236.0007 2910.3913 L 4236.2107 2911.0013 L 4236.8207 2911.4113 L 4237.8407 2911.6213 L 4238.4607 2911.6213 L 4239.4807 2911.4113 L 4240.0907 2911.0013 L 4240.3007 2910.3913 L 4240.3007 2909.9813 L 4240.0907 2909.3713 L 4239.4807 2908.9613 L 4238.4607 2908.7513 L 4237.8407 2908.7513 L 4236.8207 2908.9613 L 4236.2107 2909.3713 L 4236.0007 2909.9813 L 4236.0007 2910.3913" fill="none"  stroke-width="0.6"  /></g><g c_partid="part_pcbtext" c_origin="4072.86,3048" c_rotation="90" c_mirror="" id="gge5629" layerid="3" c_shapetype="group" ><path c_fontSize="4.5" c_fontFamily="" c_text="P2" d="M 4066.71 3048 L 4071 3048 M 4066.71 3048 L 4066.71 3046.16 L 4066.91 3045.55 L 4067.11 3045.34 L 4067.52 3045.14 L 4068.14 3045.14 L 4068.55 3045.34 L 4068.75 3045.55 L 4068.96 3046.16 L 4068.96 3048 M 4067.73 3043.58 L 4067.52 3043.58 L 4067.11 3043.38 L 4066.91 3043.17 L 4066.71 3042.76 L 4066.71 3041.95 L 4066.91 3041.54 L 4067.11 3041.33 L 4067.52 3041.13 L 4067.93 3041.13 L 4068.34 3041.33 L 4068.96 3041.74 L 4071 3043.79 L 4071 3040.92" fill="none"  stroke-width="0.6" c_note="note_pre" /></g><g c_partid="part_pcbtext" c_origin="4067.36,3048" c_rotation="90" c_mirror="" id="gge5631" layerid="3" c_shapetype="group" display="none"><path c_fontSize="4.5" c_fontFamily="" c_text="8P" d="M 4061.21 3046.98 L 4061.41 3047.59 L 4061.82 3047.8 L 4062.23 3047.8 L 4062.64 3047.59 L 4062.84 3047.18 L 4063.05 3046.36 L 4063.25 3045.75 L 4063.66 3045.34 L 4064.07 3045.14 L 4064.68 3045.14 L 4065.09 3045.34 L 4065.3 3045.55 L 4065.5 3046.16 L 4065.5 3046.98 L 4065.3 3047.59 L 4065.09 3047.8 L 4064.68 3048 L 4064.07 3048 L 4063.66 3047.8 L 4063.25 3047.39 L 4063.05 3046.77 L 4062.84 3045.95 L 4062.64 3045.55 L 4062.23 3045.34 L 4061.82 3045.34 L 4061.41 3045.55 L 4061.21 3046.16 L 4061.21 3046.98 M 4061.21 3043.79 L 4065.5 3043.79 M 4061.21 3043.79 L 4061.21 3041.95 L 4061.41 3041.33 L 4061.61 3041.13 L 4062.02 3040.92 L 4062.64 3040.92 L 4063.05 3041.13 L 4063.25 3041.33 L 4063.46 3041.95 L 4063.46 3043.79" fill="none"  stroke-width="0.6"  /></g><g c_partid="part_pcbtext" c_origin="4270.34,3049.94" c_rotation="90" c_mirror="" id="gge6100" layerid="3" c_shapetype="group" ><path c_fontSize="4.5" c_fontFamily="" c_text="R1" d="M 4264.1875 3049.9415 L 4268.4875 3049.9415 M 4264.1875 3049.9415 L 4264.1875 3048.0915 L 4264.3975 3047.4815 L 4264.5975 3047.2815 L 4265.0075 3047.0715 L 4265.4175 3047.0715 L 4265.8275 3047.2815 L 4266.0275 3047.4815 L 4266.2375 3048.0915 L 4266.2375 3049.9415 M 4266.2375 3048.5015 L 4268.4875 3047.0715 M 4265.0075 3045.7215 L 4264.8075 3045.3115 L 4264.1875 3044.7015 L 4268.4875 3044.7015" fill="none"  stroke-width="0.6" c_note="note_pre" /></g><g c_partid="part_pcbtext" c_origin="4264.84,3049.94" c_rotation="90" c_mirror="" id="gge6102" layerid="3" c_shapetype="group" display="none"><path c_fontSize="4.5" c_fontFamily="" c_text="R0805" d="M 4258.69 3049.937 L 4262.99 3049.937 M 4258.69 3049.937 L 4258.69 3048.097 L 4258.89 3047.487 L 4259.1 3047.277 L 4259.51 3047.077 L 4259.92 3047.077 L 4260.33 3047.277 L 4260.53 3047.487 L 4260.74 3048.097 L 4260.74 3049.937 M 4260.74 3048.507 L 4262.99 3047.077 M 4258.69 3044.497 L 4258.89 3045.107 L 4259.51 3045.517 L 4260.53 3045.727 L 4261.14 3045.727 L 4262.17 3045.517 L 4262.78 3045.107 L 4262.99 3044.497 L 4262.99 3044.087 L 4262.78 3043.477 L 4262.17 3043.067 L 4261.14 3042.857 L 4260.53 3042.857 L 4259.51 3043.067 L 4258.89 3043.477 L 4258.69 3044.087 L 4258.69 3044.497 M 4258.69 3040.487 L 4258.89 3041.097 L 4259.3 3041.307 L 4259.71 3041.307 L 4260.12 3041.097 L 4260.33 3040.687 L 4260.53 3039.877 L 4260.74 3039.257 L 4261.14 3038.847 L 4261.55 3038.647 L 4262.17 3038.647 L 4262.58 3038.847 L 4262.78 3039.057 L 4262.99 3039.667 L 4262.99 3040.487 L 4262.78 3041.097 L 4262.58 3041.307 L 4262.17 3041.507 L 4261.55 3041.507 L 4261.14 3041.307 L 4260.74 3040.897 L 4260.53 3040.287 L 4260.33 3039.467 L 4260.12 3039.057 L 4259.71 3038.847 L 4259.3 3038.847 L 4258.89 3039.057 L 4258.69 3039.667 L 4258.69 3040.487 M 4258.69 3036.067 L 4258.89 3036.687 L 4259.51 3037.087 L 4260.53 3037.297 L 4261.14 3037.297 L 4262.17 3037.087 L 4262.78 3036.687 L 4262.99 3036.067 L 4262.99 3035.657 L 4262.78 3035.047 L 4262.17 3034.637 L 4261.14 3034.437 L 4260.53 3034.437 L 4259.51 3034.637 L 4258.89 3035.047 L 4258.69 3035.657 L 4258.69 3036.067 M 4258.69 3030.627 L 4258.69 3032.677 L 4260.53 3032.877 L 4260.33 3032.677 L 4260.12 3032.057 L 4260.12 3031.447 L 4260.33 3030.837 L 4260.74 3030.427 L 4261.35 3030.217 L 4261.76 3030.217 L 4262.37 3030.427 L 4262.78 3030.837 L 4262.99 3031.447 L 4262.99 3032.057 L 4262.78 3032.677 L 4262.58 3032.877 L 4262.17 3033.087" fill="none"  stroke-width="0.6"  /></g><g c_partid="part_pcbtext" c_origin="4270.34,3092.94" c_rotation="90" c_mirror="" id="gge6121" layerid="3" c_shapetype="group" ><path c_fontSize="4.5" c_fontFamily="" c_text="R2" d="M 4264.1875 3092.9415 L 4268.4875 3092.9415 M 4264.1875 3092.9415 L 4264.1875 3091.0915 L 4264.3975 3090.4815 L 4264.5975 3090.2815 L 4265.0075 3090.0715 L 4265.4175 3090.0715 L 4265.8275 3090.2815 L 4266.0275 3090.4815 L 4266.2375 3091.0915 L 4266.2375 3092.9415 M 4266.2375 3091.5015 L 4268.4875 3090.0715 M 4265.2175 3088.5215 L 4265.0075 3088.5215 L 4264.5975 3088.3115 L 4264.3975 3088.1115 L 4264.1875 3087.7015 L 4264.1875 3086.8815 L 4264.3975 3086.4715 L 4264.5975 3086.2715 L 4265.0075 3086.0615 L 4265.4175 3086.0615 L 4265.8275 3086.2715 L 4266.4375 3086.6815 L 4268.4875 3088.7215 L 4268.4875 3085.8615" fill="none"  stroke-width="0.6" c_note="note_pre" /></g><g c_partid="part_pcbtext" c_origin="4264.84,3092.94" c_rotation="90" c_mirror="" id="gge6123" layerid="3" c_shapetype="group" display="none"><path c_fontSize="4.5" c_fontFamily="" c_text="R0805" d="M 4258.69 3092.937 L 4262.99 3092.937 M 4258.69 3092.937 L 4258.69 3091.097 L 4258.89 3090.487 L 4259.1 3090.277 L 4259.51 3090.077 L 4259.92 3090.077 L 4260.33 3090.277 L 4260.53 3090.487 L 4260.74 3091.097 L 4260.74 3092.937 M 4260.74 3091.507 L 4262.99 3090.077 M 4258.69 3087.497 L 4258.89 3088.107 L 4259.51 3088.517 L 4260.53 3088.727 L 4261.14 3088.727 L 4262.17 3088.517 L 4262.78 3088.107 L 4262.99 3087.497 L 4262.99 3087.087 L 4262.78 3086.477 L 4262.17 3086.067 L 4261.14 3085.857 L 4260.53 3085.857 L 4259.51 3086.067 L 4258.89 3086.477 L 4258.69 3087.087 L 4258.69 3087.497 M 4258.69 3083.487 L 4258.89 3084.097 L 4259.3 3084.307 L 4259.71 3084.307 L 4260.12 3084.097 L 4260.33 3083.687 L 4260.53 3082.877 L 4260.74 3082.257 L 4261.14 3081.847 L 4261.55 3081.647 L 4262.17 3081.647 L 4262.58 3081.847 L 4262.78 3082.057 L 4262.99 3082.667 L 4262.99 3083.487 L 4262.78 3084.097 L 4262.58 3084.307 L 4262.17 3084.507 L 4261.55 3084.507 L 4261.14 3084.307 L 4260.74 3083.897 L 4260.53 3083.287 L 4260.33 3082.467 L 4260.12 3082.057 L 4259.71 3081.847 L 4259.3 3081.847 L 4258.89 3082.057 L 4258.69 3082.667 L 4258.69 3083.487 M 4258.69 3079.067 L 4258.89 3079.687 L 4259.51 3080.087 L 4260.53 3080.297 L 4261.14 3080.297 L 4262.17 3080.087 L 4262.78 3079.687 L 4262.99 3079.067 L 4262.99 3078.657 L 4262.78 3078.047 L 4262.17 3077.637 L 4261.14 3077.437 L 4260.53 3077.437 L 4259.51 3077.637 L 4258.89 3078.047 L 4258.69 3078.657 L 4258.69 3079.067 M 4258.69 3073.627 L 4258.69 3075.677 L 4260.53 3075.877 L 4260.33 3075.677 L 4260.12 3075.057 L 4260.12 3074.447 L 4260.33 3073.837 L 4260.74 3073.427 L 4261.35 3073.217 L 4261.76 3073.217 L 4262.37 3073.427 L 4262.78 3073.837 L 4262.99 3074.447 L 4262.99 3075.057 L 4262.78 3075.677 L 4262.58 3075.877 L 4262.17 3076.087" fill="none"  stroke-width="0.6"  /></g><g c_partid="part_pcbtext" c_origin="4191.35,3017.5" c_rotation="90" c_mirror="" id="gge6259" layerid="3" c_shapetype="group" ><path c_fontSize="4.5" c_fontFamily="" c_text="R3" d="M 4185.1875 3017.5045 L 4189.4875 3017.5045 M 4185.1875 3017.5045 L 4185.1875 3015.6545 L 4185.3975 3015.0445 L 4185.5975 3014.8445 L 4186.0075 3014.6345 L 4186.4175 3014.6345 L 4186.8275 3014.8445 L 4187.0275 3015.0445 L 4187.2375 3015.6545 L 4187.2375 3017.5045 M 4187.2375 3016.0645 L 4189.4875 3014.6345 M 4185.1875 3012.8745 L 4185.1875 3010.6245 L 4186.8275 3011.8545 L 4186.8275 3011.2445 L 4187.0275 3010.8345 L 4187.2375 3010.6245 L 4187.8475 3010.4245 L 4188.2575 3010.4245 L 4188.8675 3010.6245 L 4189.2775 3011.0345 L 4189.4875 3011.6545 L 4189.4875 3012.2645 L 4189.2775 3012.8745 L 4189.0775 3013.0845 L 4188.6675 3013.2845" fill="none"  stroke-width="0.6" c_note="note_pre" /></g><g c_partid="part_pcbtext" c_origin="4185.85,3017.5" c_rotation="90" c_mirror="" id="gge6261" layerid="3" c_shapetype="group" display="none"><path c_fontSize="4.5" c_fontFamily="" c_text="R0805" d="M 4179.69 3017.5 L 4183.99 3017.5 M 4179.69 3017.5 L 4179.69 3015.66 L 4179.89 3015.05 L 4180.1 3014.84 L 4180.51 3014.64 L 4180.92 3014.64 L 4181.33 3014.84 L 4181.53 3015.05 L 4181.74 3015.66 L 4181.74 3017.5 M 4181.74 3016.07 L 4183.99 3014.64 M 4179.69 3012.06 L 4179.89 3012.67 L 4180.51 3013.08 L 4181.53 3013.29 L 4182.14 3013.29 L 4183.17 3013.08 L 4183.78 3012.67 L 4183.99 3012.06 L 4183.99 3011.65 L 4183.78 3011.04 L 4183.17 3010.63 L 4182.14 3010.42 L 4181.53 3010.42 L 4180.51 3010.63 L 4179.89 3011.04 L 4179.69 3011.65 L 4179.69 3012.06 M 4179.69 3008.05 L 4179.89 3008.66 L 4180.3 3008.87 L 4180.71 3008.87 L 4181.12 3008.66 L 4181.33 3008.25 L 4181.53 3007.44 L 4181.74 3006.82 L 4182.14 3006.41 L 4182.55 3006.21 L 4183.17 3006.21 L 4183.58 3006.41 L 4183.78 3006.62 L 4183.99 3007.23 L 4183.99 3008.05 L 4183.78 3008.66 L 4183.58 3008.87 L 4183.17 3009.07 L 4182.55 3009.07 L 4182.14 3008.87 L 4181.74 3008.46 L 4181.53 3007.85 L 4181.33 3007.03 L 4181.12 3006.62 L 4180.71 3006.41 L 4180.3 3006.41 L 4179.89 3006.62 L 4179.69 3007.23 L 4179.69 3008.05 M 4179.69 3003.63 L 4179.89 3004.25 L 4180.51 3004.65 L 4181.53 3004.86 L 4182.14 3004.86 L 4183.17 3004.65 L 4183.78 3004.25 L 4183.99 3003.63 L 4183.99 3003.22 L 4183.78 3002.61 L 4183.17 3002.2 L 4182.14 3002 L 4181.53 3002 L 4180.51 3002.2 L 4179.89 3002.61 L 4179.69 3003.22 L 4179.69 3003.63 M 4179.69 2998.19 L 4179.69 3000.24 L 4181.53 3000.44 L 4181.33 3000.24 L 4181.12 2999.62 L 4181.12 2999.01 L 4181.33 2998.4 L 4181.74 2997.99 L 4182.35 2997.78 L 4182.76 2997.78 L 4183.37 2997.99 L 4183.78 2998.4 L 4183.99 2999.01 L 4183.99 2999.62 L 4183.78 3000.24 L 4183.58 3000.44 L 4183.17 3000.65" fill="none"  stroke-width="0.6"  /></g><g c_partid="part_pcbtext" c_origin="4183.85,3053" c_rotation="90" c_mirror="" id="gge6368" layerid="3" c_shapetype="group" ><path c_fontSize="4.5" c_fontFamily="" c_text="R4" d="M 4181.3905 3053.0045 L 4185.6805 3053.0045 M 4181.3905 3053.0045 L 4181.3905 3051.1545 L 4181.5905 3050.5445 L 4181.8005 3050.3445 L 4182.2105 3050.1345 L 4182.6205 3050.1345 L 4183.0305 3050.3445 L 4183.2305 3050.5445 L 4183.4305 3051.1545 L 4183.4305 3053.0045 M 4183.4305 3051.5645 L 4185.6805 3050.1345 M 4181.3905 3046.7445 L 4184.2505 3048.7845 L 4184.2505 3045.7145 M 4181.3905 3046.7445 L 4185.6805 3046.7445" fill="none"  stroke-width="0.6" c_note="note_pre" /></g><g c_partid="part_pcbtext" c_origin="4178.35,3053" c_rotation="90" c_mirror="" id="gge6371" layerid="3" c_shapetype="group" display="none"><path c_fontSize="4.5" c_fontFamily="" c_text="R0805" d="M 4172.19 3053 L 4176.49 3053 M 4172.19 3053 L 4172.19 3051.16 L 4172.39 3050.55 L 4172.6 3050.34 L 4173.01 3050.14 L 4173.42 3050.14 L 4173.83 3050.34 L 4174.03 3050.55 L 4174.24 3051.16 L 4174.24 3053 M 4174.24 3051.57 L 4176.49 3050.14 M 4172.19 3047.56 L 4172.39 3048.17 L 4173.01 3048.58 L 4174.03 3048.79 L 4174.64 3048.79 L 4175.67 3048.58 L 4176.28 3048.17 L 4176.49 3047.56 L 4176.49 3047.15 L 4176.28 3046.54 L 4175.67 3046.13 L 4174.64 3045.92 L 4174.03 3045.92 L 4173.01 3046.13 L 4172.39 3046.54 L 4172.19 3047.15 L 4172.19 3047.56 M 4172.19 3043.55 L 4172.39 3044.16 L 4172.8 3044.37 L 4173.21 3044.37 L 4173.62 3044.16 L 4173.83 3043.75 L 4174.03 3042.94 L 4174.24 3042.32 L 4174.64 3041.91 L 4175.05 3041.71 L 4175.67 3041.71 L 4176.08 3041.91 L 4176.28 3042.12 L 4176.49 3042.73 L 4176.49 3043.55 L 4176.28 3044.16 L 4176.08 3044.37 L 4175.67 3044.57 L 4175.05 3044.57 L 4174.64 3044.37 L 4174.24 3043.96 L 4174.03 3043.35 L 4173.83 3042.53 L 4173.62 3042.12 L 4173.21 3041.91 L 4172.8 3041.91 L 4172.39 3042.12 L 4172.19 3042.73 L 4172.19 3043.55 M 4172.19 3039.13 L 4172.39 3039.75 L 4173.01 3040.15 L 4174.03 3040.36 L 4174.64 3040.36 L 4175.67 3040.15 L 4176.28 3039.75 L 4176.49 3039.13 L 4176.49 3038.72 L 4176.28 3038.11 L 4175.67 3037.7 L 4174.64 3037.5 L 4174.03 3037.5 L 4173.01 3037.7 L 4172.39 3038.11 L 4172.19 3038.72 L 4172.19 3039.13 M 4172.19 3033.69 L 4172.19 3035.74 L 4174.03 3035.94 L 4173.83 3035.74 L 4173.62 3035.12 L 4173.62 3034.51 L 4173.83 3033.9 L 4174.24 3033.49 L 4174.85 3033.28 L 4175.26 3033.28 L 4175.87 3033.49 L 4176.28 3033.9 L 4176.49 3034.51 L 4176.49 3035.12 L 4176.28 3035.74 L 4176.08 3035.94 L 4175.67 3036.15" fill="none"  stroke-width="0.6"  /></g><g c_partid="part_pcbtext" c_origin="4123.2,3010.74" c_rotation="0" c_mirror="" id="gge6509" layerid="3" c_shapetype="group" ><path c_fontSize="4.5" c_fontFamily="" c_text="R6" d="M 4123.194 3004.59 L 4123.194 3008.88 M 4123.194 3004.59 L 4125.034 3004.59 L 4125.654 3004.79 L 4125.854 3005 L 4126.064 3005.41 L 4126.064 3005.82 L 4125.854 3006.23 L 4125.654 3006.43 L 4125.034 3006.63 L 4123.194 3006.63 M 4124.624 3006.63 L 4126.064 3008.88 M 4129.864 3005.2 L 4129.664 3004.79 L 4129.044 3004.59 L 4128.634 3004.59 L 4128.024 3004.79 L 4127.614 3005.41 L 4127.414 3006.43 L 4127.414 3007.45 L 4127.614 3008.27 L 4128.024 3008.68 L 4128.634 3008.88 L 4128.844 3008.88 L 4129.454 3008.68 L 4129.864 3008.27 L 4130.074 3007.66 L 4130.074 3007.45 L 4129.864 3006.84 L 4129.454 3006.43 L 4128.844 3006.23 L 4128.634 3006.23 L 4128.024 3006.43 L 4127.614 3006.84 L 4127.414 3007.45" fill="none"  stroke-width="0.6" c_note="note_pre" /></g><g c_partid="part_pcbtext" c_origin="4123,2997.84" c_rotation="0" c_mirror="" id="gge6512" layerid="3" c_shapetype="group" display="none"><path c_fontSize="4.5" c_fontFamily="" c_text="R0805" d="M 4123 2991.69 L 4123 2995.99 M 4123 2991.69 L 4124.84 2991.69 L 4125.45 2991.89 L 4125.66 2992.1 L 4125.86 2992.51 L 4125.86 2992.92 L 4125.66 2993.33 L 4125.45 2993.53 L 4124.84 2993.74 L 4123 2993.74 M 4124.43 2993.74 L 4125.86 2995.99 M 4128.44 2991.69 L 4127.83 2991.89 L 4127.42 2992.51 L 4127.21 2993.53 L 4127.21 2994.14 L 4127.42 2995.17 L 4127.83 2995.78 L 4128.44 2995.99 L 4128.85 2995.99 L 4129.46 2995.78 L 4129.87 2995.17 L 4130.08 2994.14 L 4130.08 2993.53 L 4129.87 2992.51 L 4129.46 2991.89 L 4128.85 2991.69 L 4128.44 2991.69 M 4132.45 2991.69 L 4131.84 2991.89 L 4131.63 2992.3 L 4131.63 2992.71 L 4131.84 2993.12 L 4132.25 2993.33 L 4133.06 2993.53 L 4133.68 2993.74 L 4134.09 2994.14 L 4134.29 2994.55 L 4134.29 2995.17 L 4134.09 2995.58 L 4133.88 2995.78 L 4133.27 2995.99 L 4132.45 2995.99 L 4131.84 2995.78 L 4131.63 2995.58 L 4131.43 2995.17 L 4131.43 2994.55 L 4131.63 2994.14 L 4132.04 2993.74 L 4132.65 2993.53 L 4133.47 2993.33 L 4133.88 2993.12 L 4134.09 2992.71 L 4134.09 2992.3 L 4133.88 2991.89 L 4133.27 2991.69 L 4132.45 2991.69 M 4136.87 2991.69 L 4136.25 2991.89 L 4135.85 2992.51 L 4135.64 2993.53 L 4135.64 2994.14 L 4135.85 2995.17 L 4136.25 2995.78 L 4136.87 2995.99 L 4137.28 2995.99 L 4137.89 2995.78 L 4138.3 2995.17 L 4138.5 2994.14 L 4138.5 2993.53 L 4138.3 2992.51 L 4137.89 2991.89 L 4137.28 2991.69 L 4136.87 2991.69 M 4142.31 2991.69 L 4140.26 2991.69 L 4140.06 2993.53 L 4140.26 2993.33 L 4140.88 2993.12 L 4141.49 2993.12 L 4142.1 2993.33 L 4142.51 2993.74 L 4142.72 2994.35 L 4142.72 2994.76 L 4142.51 2995.37 L 4142.1 2995.78 L 4141.49 2995.99 L 4140.88 2995.99 L 4140.26 2995.78 L 4140.06 2995.58 L 4139.85 2995.17" fill="none"  stroke-width="0.6"  /></g><g c_partid="part_pcbtext" c_origin="4225,3061.24" c_rotation="0" c_mirror="" id="gge7345" layerid="3" c_shapetype="group" ><path c_fontSize="4.5" c_fontFamily="" c_text="U2" d="M 4225 3055.08 L 4225 3058.15 L 4225.21 3058.76 L 4225.62 3059.17 L 4226.23 3059.38 L 4226.64 3059.38 L 4227.25 3059.17 L 4227.66 3058.76 L 4227.87 3058.15 L 4227.87 3055.08 M 4229.42 3056.11 L 4229.42 3055.9 L 4229.62 3055.49 L 4229.83 3055.29 L 4230.24 3055.08 L 4231.06 3055.08 L 4231.47 3055.29 L 4231.67 3055.49 L 4231.87 3055.9 L 4231.87 3056.31 L 4231.67 3056.72 L 4231.26 3057.33 L 4229.22 3059.38 L 4232.08 3059.38" fill="none"  stroke-width="0.6" c_note="note_pre" /></g><g c_partid="part_pcbtext" c_origin="4225,3055.74" c_rotation="0" c_mirror="" id="gge7347" layerid="3" c_shapetype="group" display="none"><path c_fontSize="4.5" c_fontFamily="" c_text="IDC-TH_20P-H-M-R2-C10-P2.54-S2.54-TR" d="M 4225.002 3049.585 L 4225.002 3053.875 M 4226.352 3049.585 L 4226.352 3053.875 M 4226.352 3049.585 L 4227.782 3049.585 L 4228.402 3049.785 L 4228.802 3050.195 L 4229.012 3050.605 L 4229.212 3051.215 L 4229.212 3052.245 L 4229.012 3052.855 L 4228.802 3053.265 L 4228.402 3053.675 L 4227.782 3053.875 L 4226.352 3053.875 M 4233.632 3050.605 L 4233.432 3050.195 L 4233.022 3049.785 L 4232.612 3049.585 L 4231.792 3049.585 L 4231.382 3049.785 L 4230.972 3050.195 L 4230.772 3050.605 L 4230.562 3051.215 L 4230.562 3052.245 L 4230.772 3052.855 L 4230.972 3053.265 L 4231.382 3053.675 L 4231.792 3053.875 L 4232.612 3053.875 L 4233.022 3053.675 L 4233.432 3053.265 L 4233.632 3052.855 M 4234.982 3052.035 L 4238.662 3052.035 M 4241.452 3049.585 L 4241.452 3053.875 M 4240.012 3049.585 L 4242.882 3049.585 M 4244.232 3049.585 L 4244.232 3053.875 M 4247.092 3049.585 L 4247.092 3053.875 M 4244.232 3051.625 L 4247.092 3051.625 M 4248.442 3055.305 L 4252.122 3055.305 M 4253.682 3050.605 L 4253.682 3050.405 L 4253.882 3049.995 L 4254.092 3049.785 L 4254.502 3049.585 L 4255.312 3049.585 L 4255.722 3049.785 L 4255.932 3049.995 L 4256.132 3050.405 L 4256.132 3050.805 L 4255.932 3051.215 L 4255.522 3051.835 L 4253.472 3053.875 L 4256.342 3053.875 M 4258.912 3049.585 L 4258.302 3049.785 L 4257.892 3050.405 L 4257.692 3051.425 L 4257.692 3052.035 L 4257.892 3053.055 L 4258.302 3053.675 L 4258.912 3053.875 L 4259.322 3053.875 L 4259.942 3053.675 L 4260.352 3053.055 L 4260.552 3052.035 L 4260.552 3051.425 L 4260.352 3050.405 L 4259.942 3049.785 L 4259.322 3049.585 L 4258.912 3049.585 M 4261.902 3049.585 L 4261.902 3053.875 M 4261.902 3049.585 L 4263.742 3049.585 L 4264.352 3049.785 L 4264.562 3049.995 L 4264.762 3050.405 L 4264.762 3051.015 L 4264.562 3051.425 L 4264.352 3051.625 L 4263.742 3051.835 L 4261.902 3051.835 M 4266.112 3052.035 L 4269.802 3052.035 M 4271.152 3049.585 L 4271.152 3053.875 M 4274.012 3049.585 L 4274.012 3053.875 M 4271.152 3051.625 L 4274.012 3051.625 M 4275.362 3052.035 L 4279.042 3052.035 M 4280.392 3049.585 L 4280.392 3053.875 M 4280.392 3049.585 L 4282.032 3053.875 M 4283.662 3049.585 L 4282.032 3053.875 M 4283.662 3049.585 L 4283.662 3053.875 M 4285.012 3052.035 L 4288.702 3052.035 M 4290.052 3049.585 L 4290.052 3053.875 M 4290.052 3049.585 L 4291.892 3049.585 L 4292.502 3049.785 L 4292.702 3049.995 L 4292.912 3050.405 L 4292.912 3050.805 L 4292.702 3051.215 L 4292.502 3051.425 L 4291.892 3051.625 L 4290.052 3051.625 M 4291.482 3051.625 L 4292.912 3053.875 M 4294.462 3050.605 L 4294.462 3050.405 L 4294.672 3049.995 L 4294.872 3049.785 L 4295.282 3049.585 L 4296.102 3049.585 L 4296.512 3049.785 L 4296.712 3049.995 L 4296.922 3050.405 L 4296.922 3050.805 L 4296.712 3051.215 L 4296.302 3051.835 L 4294.262 3053.875 L 4297.122 3053.875 M 4298.472 3052.035 L 4302.152 3052.035 M 4306.572 3050.605 L 4306.372 3050.195 L 4305.962 3049.785 L 4305.552 3049.585 L 4304.732 3049.585 L 4304.322 3049.785 L 4303.912 3050.195 L 4303.712 3050.605 L 4303.502 3051.215 L 4303.502 3052.245 L 4303.712 3052.855 L 4303.912 3053.265 L 4304.322 3053.675 L 4304.732 3053.875 L 4305.552 3053.875 L 4305.962 3053.675 L 4306.372 3053.265 L 4306.572 3052.855 M 4307.922 3050.405 L 4308.332 3050.195 L 4308.952 3049.585 L 4308.952 3053.875 M 4311.522 3049.585 L 4310.912 3049.785 L 4310.502 3050.405 L 4310.302 3051.425 L 4310.302 3052.035 L 4310.502 3053.055 L 4310.912 3053.675 L 4311.522 3053.875 L 4311.932 3053.875 L 4312.552 3053.675 L 4312.952 3053.055 L 4313.162 3052.035 L 4313.162 3051.425 L 4312.952 3050.405 L 4312.552 3049.785 L 4311.932 3049.585 L 4311.522 3049.585 M 4314.512 3052.035 L 4318.192 3052.035 M 4319.542 3049.585 L 4319.542 3053.875 M 4319.542 3049.585 L 4321.382 3049.585 L 4322.002 3049.785 L 4322.202 3049.995 L 4322.402 3050.405 L 4322.402 3051.015 L 4322.202 3051.425 L 4322.002 3051.625 L 4321.382 3051.835 L 4319.542 3051.835 M 4323.962 3050.605 L 4323.962 3050.405 L 4324.162 3049.995 L 4324.372 3049.785 L 4324.782 3049.585 L 4325.602 3049.585 L 4326.002 3049.785 L 4326.212 3049.995 L 4326.412 3050.405 L 4326.412 3050.805 L 4326.212 3051.215 L 4325.802 3051.835 L 4323.752 3053.875 L 4326.622 3053.875 M 4328.172 3052.855 L 4327.972 3053.055 L 4328.172 3053.265 L 4328.382 3053.055 L 4328.172 3052.855 M 4332.182 3049.585 L 4330.142 3049.585 L 4329.932 3051.425 L 4330.142 3051.215 L 4330.752 3051.015 L 4331.362 3051.015 L 4331.982 3051.215 L 4332.392 3051.625 L 4332.592 3052.245 L 4332.592 3052.655 L 4332.392 3053.265 L 4331.982 3053.675 L 4331.362 3053.875 L 4330.752 3053.875 L 4330.142 3053.675 L 4329.932 3053.465 L 4329.732 3053.055 M 4335.992 3049.585 L 4333.942 3052.445 L 4337.012 3052.445 M 4335.992 3049.585 L 4335.992 3053.875 M 4338.362 3052.035 L 4342.042 3052.035 M 4346.252 3050.195 L 4345.852 3049.785 L 4345.232 3049.585 L 4344.412 3049.585 L 4343.802 3049.785 L 4343.392 3050.195 L 4343.392 3050.605 L 4343.602 3051.015 L 4343.802 3051.215 L 4344.212 3051.425 L 4345.442 3051.835 L 4345.852 3052.035 L 4346.052 3052.245 L 4346.252 3052.655 L 4346.252 3053.265 L 4345.852 3053.675 L 4345.232 3053.875 L 4344.412 3053.875 L 4343.802 3053.675 L 4343.392 3053.265 M 4347.812 3050.605 L 4347.812 3050.405 L 4348.012 3049.995 L 4348.222 3049.785 L 4348.632 3049.585 L 4349.452 3049.585 L 4349.852 3049.785 L 4350.062 3049.995 L 4350.262 3050.405 L 4350.262 3050.805 L 4350.062 3051.215 L 4349.652 3051.835 L 4347.602 3053.875 L 4350.472 3053.875 M 4352.022 3052.855 L 4351.822 3053.055 L 4352.022 3053.265 L 4352.232 3053.055 L 4352.022 3052.855 M 4356.032 3049.585 L 4353.992 3049.585 L 4353.782 3051.425 L 4353.992 3051.215 L 4354.602 3051.015 L 4355.212 3051.015 L 4355.832 3051.215 L 4356.242 3051.625 L 4356.442 3052.245 L 4356.442 3052.655 L 4356.242 3053.265 L 4355.832 3053.675 L 4355.212 3053.875 L 4354.602 3053.875 L 4353.992 3053.675 L 4353.782 3053.465 L 4353.582 3053.055 M 4359.842 3049.585 L 4357.792 3052.445 L 4360.862 3052.445 M 4359.842 3049.585 L 4359.842 3053.875 M 4362.212 3052.035 L 4365.892 3052.035 M 4368.672 3049.585 L 4368.672 3053.875 M 4367.242 3049.585 L 4370.102 3049.585 M 4371.452 3049.585 L 4371.452 3053.875 M 4371.452 3049.585 L 4373.302 3049.585 L 4373.912 3049.785 L 4374.112 3049.995 L 4374.322 3050.405 L 4374.322 3050.805 L 4374.112 3051.215 L 4373.912 3051.425 L 4373.302 3051.625 L 4371.452 3051.625 M 4372.892 3051.625 L 4374.322 3053.875" fill="none"  stroke-width="0.6"  /></g><g c_partid="part_pcbtext" c_origin="4156.79,3094.27" c_rotation="0" c_mirror="" id="gge8111" layerid="3" c_shapetype="group" ><path c_fontSize="4.5" c_fontFamily="" c_text="R7" d="M 4156.7989 3091.819 L 4156.7989 3096.109 M 4156.7989 3091.819 L 4158.6389 3091.819 L 4159.2489 3092.019 L 4159.4489 3092.229 L 4159.6589 3092.639 L 4159.6589 3093.049 L 4159.4489 3093.459 L 4159.2489 3093.659 L 4158.6389 3093.859 L 4156.7989 3093.859 M 4158.2289 3093.859 L 4159.6589 3096.109 M 4163.8689 3091.819 L 4161.8289 3096.109 M 4161.0089 3091.819 L 4163.8689 3091.819" fill="none"  stroke-width="0.6" c_note="note_pre" /></g><g c_partid="part_pcbtext" c_origin="4163.87,3099.16" c_rotation="180" c_mirror="" id="gge8114" layerid="3" c_shapetype="group" display="none"><path c_fontSize="4.5" c_fontFamily="" c_text="R0805" d="M 4163.874 3105.31 L 4163.874 3101.01 M 4163.874 3105.31 L 4162.034 3105.31 L 4161.424 3105.11 L 4161.214 3104.9 L 4161.014 3104.49 L 4161.014 3104.08 L 4161.214 3103.67 L 4161.424 3103.47 L 4162.034 3103.26 L 4163.874 3103.26 M 4162.444 3103.26 L 4161.014 3101.01 M 4158.434 3105.31 L 4159.044 3105.11 L 4159.454 3104.49 L 4159.664 3103.47 L 4159.664 3102.86 L 4159.454 3101.83 L 4159.044 3101.22 L 4158.434 3101.01 L 4158.024 3101.01 L 4157.414 3101.22 L 4157.004 3101.83 L 4156.794 3102.86 L 4156.794 3103.47 L 4157.004 3104.49 L 4157.414 3105.11 L 4158.024 3105.31 L 4158.434 3105.31 M 4154.424 3105.31 L 4155.034 3105.11 L 4155.244 3104.7 L 4155.244 3104.29 L 4155.034 3103.88 L 4154.624 3103.67 L 4153.814 3103.47 L 4153.194 3103.26 L 4152.784 3102.86 L 4152.584 3102.45 L 4152.584 3101.83 L 4152.784 3101.42 L 4152.994 3101.22 L 4153.604 3101.01 L 4154.424 3101.01 L 4155.034 3101.22 L 4155.244 3101.42 L 4155.444 3101.83 L 4155.444 3102.45 L 4155.244 3102.86 L 4154.834 3103.26 L 4154.224 3103.47 L 4153.404 3103.67 L 4152.994 3103.88 L 4152.784 3104.29 L 4152.784 3104.7 L 4152.994 3105.11 L 4153.604 3105.31 L 4154.424 3105.31 M 4150.004 3105.31 L 4150.624 3105.11 L 4151.024 3104.49 L 4151.234 3103.47 L 4151.234 3102.86 L 4151.024 3101.83 L 4150.624 3101.22 L 4150.004 3101.01 L 4149.594 3101.01 L 4148.984 3101.22 L 4148.574 3101.83 L 4148.374 3102.86 L 4148.374 3103.47 L 4148.574 3104.49 L 4148.984 3105.11 L 4149.594 3105.31 L 4150.004 3105.31 M 4144.564 3105.31 L 4146.614 3105.31 L 4146.814 3103.47 L 4146.614 3103.67 L 4145.994 3103.88 L 4145.384 3103.88 L 4144.774 3103.67 L 4144.364 3103.26 L 4144.154 3102.65 L 4144.154 3102.24 L 4144.364 3101.63 L 4144.774 3101.22 L 4145.384 3101.01 L 4145.994 3101.01 L 4146.614 3101.22 L 4146.814 3101.42 L 4147.024 3101.83" fill="none"  stroke-width="0.6"  /></g><circle cx="4278.41" cy="3061.08" r="0.71" stroke-width="1" fill="none" layerid="3" id="gge7350" c_shapetype="line" /><polyline points="4066.701 2990.945 4283.5 2990.5 4283.5 3109.5 4066.701 3109.055 4066.701 2990.945" stroke-width="1" c_shapetype="line" stroke-linecap="round" fill="none" layerid="10" net="null" id="gge7749" /></g></svg>