<svg xmlns="http://www.w3.org/2000/svg" xmlns:xlink="http://www.w3.org/1999/xlink" width="737.4" height="450.8" viewBox="12505 6249.4 737.4 450.8"><title></title><style type="text/css">
#g1 circle.pindot {fill: none;stroke: none;}#g1 rect, #g1 circle, #g1 ellipse, #g1 polyline, #g1 line, #g1 polygon, #g1 path {shape-rendering: crispEdges;}path, polyline, polygon {stroke-linejoin:round;}
rect, circle, ellipse, polyline, line, polygon, path {shape-rendering:crispEdges;}
</style>
<rect x="12505" y="6249.4" width="737.4" height="450.8" fill="#FFFFFF" stroke="none"/><g id="g1" c_spiceCmd="null" c_para="Prefix Start`1`" importFlag="0" c_portOfADImportHack="" c_transformList="" xmlns="http://www.w3.org/2000/svg"><g c_origin="12890,6325" c_para="package`NONE`BOM_Manufacturer Part`MFRC522`Contributor`dkolibar`spicePre`U`" c_partid="part_import_gge11745" id="gge11745" c_shapetype="group" c_etype="pinpart" ><g c_partid="part_annotation" id="gge11747" ><text c_note="note_name" x="12870" y="6268" fill="#000000" font-family="Arial" font-size="7pt" font-weight="" font-style="" dominant-baseline="" text-anchor="start"  >MFRC522</text></g><g c_partid="part_annotation" id="gge11749" ><text c_note="note_pre" x="12515" y="6648" fill="#000000" font-family="Arial" font-size="7pt" font-weight="" font-style="" dominant-baseline="" text-anchor="start"  >U1</text></g><rect id="gge11751" x="12845" y="6270"   width="90" height="110" stroke="#000000" stroke-width="1" fill="none"   /><g c_partid="part_pin" c_etype="pinpart"  c_show="show"  c_elec="3" c_spicepin="2" c_origin="12865,6400" id="gge11752" c_rotation="270"><circle c_pindot="true" class="pindot" cx="12865" cy="6400" r="2" fill="#4F4F4F" stroke="none" /><path d="M 12865 6400 v -20" fill="none" stroke="#000000" stroke-width="1"/><text x="12868" y="6378" font-family="Verdana" font-size="7pt" fill="#000000" text-anchor="start"  transform="rotate(270,12868,6378)" >SCK</text><text x="12864" y="6385" font-family="Verdana" font-size="7pt" fill="#000000" text-anchor="end" display="none" transform="rotate(270,12864,6385)" >2</text><circle cx="12865" cy="6383" r="3" stroke="#000000" fill="none" stroke-width="1" display="none" /><path d="M 12868 6380 L 12865 6377 L 12862 6380" fill="none" stroke="#000000" stroke-width="1"  display="none" /></g><g c_partid="part_pin" c_etype="pinpart"  c_show="show"  c_elec="3" c_spicepin="3" c_origin="12875,6400" id="gge11759" c_rotation="270"><circle c_pindot="true" class="pindot" cx="12875" cy="6400" r="2" fill="#4F4F4F" stroke="none" /><path d="M 12875 6400 v -20" fill="none" stroke="#000000" stroke-width="1"/><text x="12878" y="6378" font-family="Verdana" font-size="7pt" fill="#000000" text-anchor="start"  transform="rotate(270,12878,6378)" >MOSI</text><text x="12874" y="6385" font-family="Verdana" font-size="7pt" fill="#000000" text-anchor="end" display="none" transform="rotate(270,12874,6385)" >3</text><circle cx="12875" cy="6383" r="3" stroke="#000000" fill="none" stroke-width="1" display="none" /><path d="M 12878 6380 L 12875 6377 L 12872 6380" fill="none" stroke="#000000" stroke-width="1"  display="none" /></g><g c_partid="part_pin" c_etype="pinpart"  c_show="show"  c_elec="3" c_spicepin="4" c_origin="12885,6400" id="gge11766" c_rotation="270"><circle c_pindot="true" class="pindot" cx="12885" cy="6400" r="2" fill="#4F4F4F" stroke="none" /><path d="M 12885 6400 v -20" fill="none" stroke="#000000" stroke-width="1"/><text x="12888" y="6378" font-family="Verdana" font-size="7pt" fill="#000000" text-anchor="start"  transform="rotate(270,12888,6378)" >MISO</text><text x="12884" y="6385" font-family="Verdana" font-size="7pt" fill="#000000" text-anchor="end" display="none" transform="rotate(270,12884,6385)" >4</text><circle cx="12885" cy="6383" r="3" stroke="#000000" fill="none" stroke-width="1" display="none" /><path d="M 12888 6380 L 12885 6377 L 12882 6380" fill="none" stroke="#000000" stroke-width="1"  display="none" /></g><g c_partid="part_pin" c_etype="pinpart"  c_show="show"  c_elec="3" c_spicepin="5" c_origin="12895,6400" id="gge11773" c_rotation="270"><circle c_pindot="true" class="pindot" cx="12895" cy="6400" r="2" fill="#4F4F4F" stroke="none" /><path d="M 12895 6400 v -20" fill="none" stroke="#000000" stroke-width="1"/><text x="12898" y="6378" font-family="Verdana" font-size="7pt" fill="#000000" text-anchor="start"  transform="rotate(270,12898,6378)" >IRQ</text><text x="12894" y="6385" font-family="Verdana" font-size="7pt" fill="#000000" text-anchor="end" display="none" transform="rotate(270,12894,6385)" >5</text><circle cx="12895" cy="6383" r="3" stroke="#000000" fill="none" stroke-width="1" display="none" /><path d="M 12898 6380 L 12895 6377 L 12892 6380" fill="none" stroke="#000000" stroke-width="1"  display="none" /></g><g c_partid="part_pin" c_etype="pinpart"  c_show="show"  c_elec="3" c_spicepin="6" c_origin="12905,6400" id="gge11780" c_rotation="270"><circle c_pindot="true" class="pindot" cx="12905" cy="6400" r="2" fill="#4F4F4F" stroke="none" /><path d="M 12905 6400 v -20" fill="none" stroke="#000000" stroke-width="1"/><text x="12908" y="6378" font-family="Verdana" font-size="7pt" fill="#000000" text-anchor="start"  transform="rotate(270,12908,6378)" >GND</text><text x="12904" y="6385" font-family="Verdana" font-size="7pt" fill="#000000" text-anchor="end" display="none" transform="rotate(270,12904,6385)" >6</text><circle cx="12905" cy="6383" r="3" stroke="#000000" fill="none" stroke-width="1" display="none" /><path d="M 12908 6380 L 12905 6377 L 12902 6380" fill="none" stroke="#000000" stroke-width="1"  display="none" /></g><g c_partid="part_pin" c_etype="pinpart"  c_show="show"  c_elec="3" c_spicepin="7" c_origin="12915,6400" id="gge11787" c_rotation="270"><circle c_pindot="true" class="pindot" cx="12915" cy="6400" r="2" fill="#4F4F4F" stroke="none" /><path d="M 12915 6400 v -20" fill="none" stroke="#000000" stroke-width="1"/><text x="12918" y="6378" font-family="Verdana" font-size="7pt" fill="#000000" text-anchor="start"  transform="rotate(270,12918,6378)" >RST</text><text x="12914" y="6385" font-family="Verdana" font-size="7pt" fill="#000000" text-anchor="end" display="none" transform="rotate(270,12914,6385)" >7</text><circle cx="12915" cy="6383" r="3" stroke="#000000" fill="none" stroke-width="1" display="none" /><path d="M 12918 6380 L 12915 6377 L 12912 6380" fill="none" stroke="#000000" stroke-width="1"  display="none" /></g><g c_partid="part_pin" c_etype="pinpart"  c_show="show"  c_elec="3" c_spicepin="8" c_origin="12925,6400" id="gge11794" c_rotation="270"><circle c_pindot="true" class="pindot" cx="12925" cy="6400" r="2" fill="#4F4F4F" stroke="none" /><path d="M 12925 6400 v -20" fill="none" stroke="#000000" stroke-width="1"/><text x="12928" y="6378" font-family="Verdana" font-size="7pt" fill="#000000" text-anchor="start"  transform="rotate(270,12928,6378)" >3V3</text><text x="12924" y="6385" font-family="Verdana" font-size="7pt" fill="#000000" text-anchor="end" display="none" transform="rotate(270,12924,6385)" >8</text><circle cx="12925" cy="6383" r="3" stroke="#000000" fill="none" stroke-width="1" display="none" /><path d="M 12928 6380 L 12925 6377 L 12922 6380" fill="none" stroke="#000000" stroke-width="1"  display="none" /></g><path d="M 12895 6280 A 20 20 0 0 1 12895.166 6319.999" id="gge11801"   stroke="#000000" stroke-width="1" c_helper_type="arc1" fill="none" /><path d="M 12885 6280 A 20 20 0 1 0 12885 6320" id="gge11802"   stroke="#000000" stroke-width="1" c_helper_type="arc1" fill="none" /><g c_partid="part_annotation" id="gge11803" c_origin="12855,6329.453125" c_shapetype="group" c_etype="pinpart"><text x="12855" y="6329.453125" fill="#000000" font-family="Verdana" font-size="7pt" font-weight="" font-style="" dominant-baseline="" text-anchor="start" type="comment"  ><tspan xml:space="preserve" xmlns:xml="http://www.w3.org/XML/1998/namespace">RFID</tspan><tspan x="12855" dy="1em" xml:space="preserve" xmlns:xml="http://www.w3.org/XML/1998/namespace">RC522</tspan></text></g><g c_partid="part_pin" c_etype="pinpart"  c_show="show"  c_elec="3" c_spicepin="1" c_origin="12855,6400" id="gge11807" c_rotation="270"><circle c_pindot="true" class="pindot" cx="12855" cy="6400" r="2" fill="#4F4F4F" stroke="none" /><path d="M 12855 6400 v -20" fill="none" stroke="#000000" stroke-width="1"/><text x="12858" y="6378" font-family="Verdana" font-size="7pt" fill="#000000" text-anchor="start"  transform="rotate(270,12858,6378)" >SDA</text><text x="12854" y="6385" font-family="Verdana" font-size="7pt" fill="#000000" text-anchor="end" display="none" transform="rotate(270,12854,6385)" >9</text><circle cx="12855" cy="6383" r="3" stroke="#000000" fill="none" stroke-width="1" display="none" /><path d="M 12858 6380 L 12855 6377 L 12852 6380" fill="none" stroke="#000000" stroke-width="1"  display="none" /></g></g><g c_origin="12790,6500" c_para="package`DC-DC MP1584`BOM_Manufacturer``BOM_Manufacturer Part`DC-DC MP1584`BOM_Supplier Part``BOM_Supplier``link``Contributor`mikrotechrs`spicePre`U`" c_partid="part_import_gge14071" id="gge14071" c_shapetype="group" c_etype="pinpart" ><g c_partid="part_annotation" id="gge14073" display="none"><text c_note="note_name" x="12800" y="6458.5" fill="#000000" font-family="Arial" font-size="7pt" font-weight="" font-style="" dominant-baseline="" text-anchor="start"  >DC-DC MP1584</text></g><g c_partid="part_annotation" id="gge14075" ><text c_note="note_pre" x="12535.0078125" y="6603.5" fill="#000000" font-family="Arial" font-size="7pt" font-weight="" font-style="" dominant-baseline="" text-anchor="start"  >U2</text></g><g c_partid="part_annotation" id="gge14077" c_origin="12760,6478.499975" c_shapetype="group" c_etype="pinpart"><text x="12760" y="6478.499975" fill="#000000" font-family="Arial" font-size="7pt" font-weight="" font-style="" dominant-baseline="" text-anchor="start" type="comment"  >DC-DC MP1584</text></g><g c_partid="part_annotation" id="gge14079" c_origin="12535.0078125,6608.5" c_shapetype="group" c_etype="pinpart"><text x="12535.0078125" y="6608.5" fill="#000000" font-family="Arial" font-size="7pt" font-weight="" font-style="" dominant-baseline="" text-anchor="start" type="comment"  >U?</text></g><rect id="gge14081" x="12760" y="6480" rx="1" ry="1" width="60" height="40" stroke="#000000" stroke-width="1" fill="none"   /><g c_partid="part_pin" c_etype="pinpart"  c_show="show"  c_elec="4" c_spicepin="3" c_origin="12740,6490" id="gge14082" c_rotation="180"><circle c_pindot="true" class="pindot" cx="12740" cy="6490" r="2" fill="#4F4F4F" stroke="none" /><path d="M 12740 6490 h 20" fill="none" stroke="#000000" stroke-width="1"/><text x="12763" y="6493" font-family="Verdana" font-size="7pt" fill="#000000" text-anchor="start"   >IN</text><text x="12754" y="6489" font-family="Verdana" font-size="7pt" fill="#000000" text-anchor="end"   >3</text><circle cx="12757" cy="6490" r="3" stroke="#000000" fill="none" stroke-width="1" display="none" /><path d="M 12760 6493 L 12763 6490 L 12760 6487" fill="none" stroke="#000000" stroke-width="1"  display="none" /></g><g c_partid="part_pin" c_etype="pinpart"  c_show="show"  c_elec="4" c_spicepin="2" c_origin="12840,6490" id="gge14089" c_rotation="0"><circle c_pindot="true" class="pindot" cx="12840" cy="6490" r="2" fill="#4F4F4F" stroke="none" /><path d="M 12840 6490 h -20" fill="none" stroke="#000000" stroke-width="1"/><text x="12817" y="6493" font-family="Verdana" font-size="7pt" fill="#000000" text-anchor="end"   >OUT</text><text x="12826" y="6489" font-family="Verdana" font-size="7pt" fill="#000000" text-anchor="start"   >2</text><circle cx="12823" cy="6490" r="3" stroke="#000000" fill="none" stroke-width="1" display="none" /><path d="M 12820 6487 L 12817 6490 L 12820 6493" fill="none" stroke="#000000" stroke-width="1"  display="none" /></g><g c_partid="part_pin" c_etype="pinpart"  c_show="show"  c_elec="4" c_spicepin="1" c_origin="12840,6510" id="gge14096" c_rotation="0"><circle c_pindot="true" class="pindot" cx="12840" cy="6510" r="2" fill="#4F4F4F" stroke="none" /><path d="M 12840 6510 h -20" fill="none" stroke="#000000" stroke-width="1"/><text x="12817" y="6513" font-family="Verdana" font-size="7pt" fill="#000000" text-anchor="end"   >GND</text><text x="12826" y="6509" font-family="Verdana" font-size="7pt" fill="#000000" text-anchor="start"   >1</text><circle cx="12823" cy="6510" r="3" stroke="#000000" fill="none" stroke-width="1" display="none" /><path d="M 12820 6507 L 12817 6510 L 12820 6513" fill="none" stroke="#000000" stroke-width="1"  display="none" /></g><g c_partid="part_pin" c_etype="pinpart"  c_show="show"  c_elec="4" c_spicepin="4" c_origin="12740,6510" id="gge14103" c_rotation="180"><circle c_pindot="true" class="pindot" cx="12740" cy="6510" r="2" fill="#4F4F4F" stroke="none" /><path d="M 12740 6510 h 20" fill="none" stroke="#000000" stroke-width="1"/><text x="12763" y="6513" font-family="Verdana" font-size="7pt" fill="#000000" text-anchor="start"   >GND</text><text x="12754" y="6509" font-family="Verdana" font-size="7pt" fill="#000000" text-anchor="end"   >4</text><circle cx="12757" cy="6510" r="3" stroke="#000000" fill="none" stroke-width="1" display="none" /><path d="M 12760 6513 L 12763 6510 L 12760 6507" fill="none" stroke="#000000" stroke-width="1"  display="none" /></g></g><g c_origin="12695,6505" c_para="package`18650-HOLDER`description`Battery Holder`Contributor`SparkFun`BOM_Manufacturer Part``spicePre`3`" c_partid="part_import_gge14437" id="gge14437" c_shapetype="group" c_etype="pinpart" c_rotation="270"><g c_partid="part_annotation" id="gge14439" ><text c_note="note_name" x="12712" y="6517.359375" fill="#000000" font-family="Arial" font-size="7pt" font-weight="" font-style="" dominant-baseline="" text-anchor="start"  >18650</text></g><g c_partid="part_annotation" id="gge14441" ><text c_note="note_pre" x="12712" y="6508.2109375" fill="#000000" font-family="Arial" font-size="7pt" font-weight="" font-style="" dominant-baseline="" text-anchor="start"  >3.7V</text></g><polyline points="12710 6500 12680 6500" stroke="#000000" id="gge14443" stroke-width="2"   fill="none" stroke-linecap="round" /><polyline points="12700 6505 12690 6505" stroke="#000000" id="gge14444" stroke-width="2"   fill="none" stroke-linecap="round" /><polyline points="12710 6510 12680 6510" stroke="#000000" id="gge14445" stroke-width="2"   fill="none" stroke-linecap="round" /><polyline points="12700 6515 12690 6515" stroke="#000000" id="gge14446" stroke-width="2"   fill="none" stroke-linecap="round" /><polyline points="12695 6495 12695 6499" stroke="#000000" id="gge14447" stroke-width="1"   fill="none" stroke-linecap="round" /><g c_partid="part_pin" c_etype="pinpart"  c_show="show"  c_elec="4" c_spicepin="PWR@1" c_origin="12695,6485" id="gge14448" c_rotation="90"><circle c_pindot="true" class="pindot" cx="12695" cy="6485" r="2" fill="#4F4F4F" stroke="none" /><path d="M 12695 6485 v 10" fill="none" stroke="#000000" stroke-width="1"/><text x="12698" y="6498" font-family="Verdana" font-size="7pt" fill="#000000" text-anchor="end" display="none" transform="rotate(270,12698,6498)" >+</text><text x="12694" y="6489" font-family="Verdana" font-size="7pt" fill="#000000" text-anchor="start" display="none" transform="rotate(270,12694,6489)" >PWR@1</text><circle cx="12695" cy="6492" r="3" stroke="#000000" fill="none" stroke-width="1" display="none" /><path d="M 12692 6495 L 12695 6498 L 12698 6495" fill="none" stroke="#000000" stroke-width="1"  display="none" /></g><g c_partid="part_annotation" id="gge14455" c_origin="12582.859375,6610" c_shapetype="group" c_etype="pinpart"><text x="12582.859375" y="6610" fill="#000000" font-family="Verdana" font-size="9pt" font-weight="" font-style="" dominant-baseline="" text-anchor="start" type="comment" transform="rotate(90,12582.859375,6610)" >18650 - 3.7V</text></g><g c_partid="part_pin" c_etype="pinpart"  c_show="show"  c_elec="4" c_spicepin="GND@1" c_origin="12695,6525" id="gge14457" c_rotation="270"><circle c_pindot="true" class="pindot" cx="12695" cy="6525" r="2" fill="#4F4F4F" stroke="none" /><path d="M 12695 6525 v -10" fill="none" stroke="#000000" stroke-width="1"/><text x="12698" y="6512" font-family="Verdana" font-size="7pt" fill="#000000" text-anchor="start" display="none" transform="rotate(270,12698,6512)" >-</text><text x="12694" y="6521" font-family="Verdana" font-size="7pt" fill="#000000" text-anchor="end" display="none" transform="rotate(270,12694,6521)" >GND@1</text><circle cx="12695" cy="6518" r="3" stroke="#000000" fill="none" stroke-width="1" display="none" /><path d="M 12698 6515 L 12695 6512 L 12692 6515" fill="none" stroke="#000000" stroke-width="1"  display="none" /></g></g><g c_origin="13040,6340" c_para="package`ESP-12E`BOM_Manufacturer Part`ESP-12E(ESP8266)`Contributor`eee13`spicePre`M`" c_partid="part_import_gge15370" id="gge15370" c_shapetype="group" c_etype="pinpart" ><g c_partid="part_annotation" id="gge15372" ><text c_note="note_name" x="13020" y="6283" fill="#000000" font-family="Arial" font-size="7pt" font-weight="" font-style="" dominant-baseline="" text-anchor="start"  >ESP-12E(ESP8266)</text></g><g c_partid="part_annotation" id="gge15374" ><text c_note="note_pre" x="12520" y="6568" fill="#000000" font-family="Arial" font-size="7pt" font-weight="" font-style="" dominant-baseline="" text-anchor="start"  >MK1</text></g><ellipse cx="13015" cy="6293" rx="1.5" ry="1.5" id="gge15376" stroke="#000000" stroke-width="1" fill="#000000"   /><rect id="gge15377" x="13010" y="6288" rx="2" ry="2" width="100" height="112" stroke="#000000" stroke-width="1" fill="none"   /><ellipse cx="13015" cy="6293" rx="1.5" ry="1.5" id="gge15378" stroke="#000000" stroke-width="1" fill="#000000"   /><g c_partid="part_pin" c_etype="pinpart"  c_show="show"  c_elec="0" c_spicepin="1" c_origin="13000,6300" id="gge15379" c_rotation="180"><circle c_pindot="true" class="pindot" cx="13000" cy="6300" r="2" fill="#4F4F4F" stroke="none" /><path d="M 13000 6300 h 10" fill="none" stroke="#000000" stroke-width="1"/><text x="13013.7" y="6304" font-family="Verdana" font-size="7pt" fill="#000000" text-anchor="start"   >RST</text><text x="13009.5" y="6299" font-family="Verdana" font-size="7pt" fill="#000000" text-anchor="end"   >1</text><circle cx="13007" cy="6300" r="3" stroke="#000000" fill="none" stroke-width="1" display="none" /><path d="M 13010 6303 L 13013 6300 L 13010 6297" fill="none" stroke="#000000" stroke-width="1"  display="none" /></g><g c_partid="part_pin" c_etype="pinpart"  c_show="show"  c_elec="0" c_spicepin="2" c_origin="13000,6310" id="gge15386" c_rotation="180"><circle c_pindot="true" class="pindot" cx="13000" cy="6310" r="2" fill="#4F4F4F" stroke="none" /><path d="M 13000 6310 h 10" fill="none" stroke="#000000" stroke-width="1"/><text x="13013.7" y="6314" font-family="Verdana" font-size="7pt" fill="#000000" text-anchor="start"   >ADC</text><text x="13009.5" y="6309" font-family="Verdana" font-size="7pt" fill="#000000" text-anchor="end"   >2</text><circle cx="13007" cy="6310" r="3" stroke="#000000" fill="none" stroke-width="1" display="none" /><path d="M 13010 6313 L 13013 6310 L 13010 6307" fill="none" stroke="#000000" stroke-width="1"  display="none" /></g><g c_partid="part_pin" c_etype="pinpart"  c_show="show"  c_elec="0" c_spicepin="3" c_origin="13000,6320" id="gge15393" c_rotation="180"><circle c_pindot="true" class="pindot" cx="13000" cy="6320" r="2" fill="#4F4F4F" stroke="none" /><path d="M 13000 6320 h 10" fill="none" stroke="#000000" stroke-width="1"/><text x="13013.7" y="6324" font-family="Verdana" font-size="7pt" fill="#000000" text-anchor="start"   >EN(CH-PD)</text><text x="13009.5" y="6319" font-family="Verdana" font-size="7pt" fill="#000000" text-anchor="end"   >3</text><circle cx="13007" cy="6320" r="3" stroke="#000000" fill="none" stroke-width="1" display="none" /><path d="M 13010 6323 L 13013 6320 L 13010 6317" fill="none" stroke="#000000" stroke-width="1"  display="none" /></g><g c_partid="part_pin" c_etype="pinpart"  c_show="show"  c_elec="0" c_spicepin="4" c_origin="13000,6330" id="gge15400" c_rotation="180"><circle c_pindot="true" class="pindot" cx="13000" cy="6330" r="2" fill="#4F4F4F" stroke="none" /><path d="M 13000 6330 h 10" fill="none" stroke="#000000" stroke-width="1"/><text x="13013.7" y="6334" font-family="Verdana" font-size="7pt" fill="#000000" text-anchor="start"   >GPIO16</text><text x="13009.5" y="6329" font-family="Verdana" font-size="7pt" fill="#000000" text-anchor="end"   >4</text><circle cx="13007" cy="6330" r="3" stroke="#000000" fill="none" stroke-width="1" display="none" /><path d="M 13010 6333 L 13013 6330 L 13010 6327" fill="none" stroke="#000000" stroke-width="1"  display="none" /></g><g c_partid="part_pin" c_etype="pinpart"  c_show="show"  c_elec="0" c_spicepin="5" c_origin="13000,6340" id="gge15407" c_rotation="180"><circle c_pindot="true" class="pindot" cx="13000" cy="6340" r="2" fill="#4F4F4F" stroke="none" /><path d="M 13000 6340 h 10" fill="none" stroke="#000000" stroke-width="1"/><text x="13013.7" y="6344" font-family="Verdana" font-size="7pt" fill="#000000" text-anchor="start"   >GPIO14</text><text x="13009.5" y="6339" font-family="Verdana" font-size="7pt" fill="#000000" text-anchor="end"   >5</text><circle cx="13007" cy="6340" r="3" stroke="#000000" fill="none" stroke-width="1" display="none" /><path d="M 13010 6343 L 13013 6340 L 13010 6337" fill="none" stroke="#000000" stroke-width="1"  display="none" /></g><g c_partid="part_pin" c_etype="pinpart"  c_show="show"  c_elec="0" c_spicepin="6" c_origin="13000,6350" id="gge15414" c_rotation="180"><circle c_pindot="true" class="pindot" cx="13000" cy="6350" r="2" fill="#4F4F4F" stroke="none" /><path d="M 13000 6350 h 10" fill="none" stroke="#000000" stroke-width="1"/><text x="13013.7" y="6354" font-family="Verdana" font-size="7pt" fill="#000000" text-anchor="start"   >GPIO12</text><text x="13009.5" y="6349" font-family="Verdana" font-size="7pt" fill="#000000" text-anchor="end"   >6</text><circle cx="13007" cy="6350" r="3" stroke="#000000" fill="none" stroke-width="1" display="none" /><path d="M 13010 6353 L 13013 6350 L 13010 6347" fill="none" stroke="#000000" stroke-width="1"  display="none" /></g><g c_partid="part_pin" c_etype="pinpart"  c_show="show"  c_elec="0" c_spicepin="7" c_origin="13000,6360" id="gge15421" c_rotation="180"><circle c_pindot="true" class="pindot" cx="13000" cy="6360" r="2" fill="#4F4F4F" stroke="none" /><path d="M 13000 6360 h 10" fill="none" stroke="#000000" stroke-width="1"/><text x="13013.7" y="6364" font-family="Verdana" font-size="7pt" fill="#000000" text-anchor="start"   >GPIO13</text><text x="13009.5" y="6359" font-family="Verdana" font-size="7pt" fill="#000000" text-anchor="end"   >7</text><circle cx="13007" cy="6360" r="3" stroke="#000000" fill="none" stroke-width="1" display="none" /><path d="M 13010 6363 L 13013 6360 L 13010 6357" fill="none" stroke="#000000" stroke-width="1"  display="none" /></g><g c_partid="part_pin" c_etype="pinpart"  c_show="show"  c_elec="0" c_spicepin="8" c_origin="13000,6370" id="gge15428" c_rotation="180"><circle c_pindot="true" class="pindot" cx="13000" cy="6370" r="2" fill="#4F4F4F" stroke="none" /><path d="M 13000 6370 h 10" fill="none" stroke="#000000" stroke-width="1"/><text x="13013.7" y="6374" font-family="Verdana" font-size="7pt" fill="#000000" text-anchor="start"   >VCC</text><text x="13009.5" y="6369" font-family="Verdana" font-size="7pt" fill="#000000" text-anchor="end"   >8</text><circle cx="13007" cy="6370" r="3" stroke="#000000" fill="none" stroke-width="1" display="none" /><path d="M 13010 6373 L 13013 6370 L 13010 6367" fill="none" stroke="#000000" stroke-width="1"  display="none" /></g><g c_partid="part_pin" c_etype="pinpart"  c_show="show"  c_elec="0" c_spicepin="9" c_origin="13030,6410" id="gge15435" c_rotation="270"><circle c_pindot="true" class="pindot" cx="13030" cy="6410" r="2" fill="#4F4F4F" stroke="none" /><path d="M 13030 6410 v -10" fill="none" stroke="#000000" stroke-width="1"/><text x="13034" y="6396.3" font-family="Verdana" font-size="7pt" fill="#000000" text-anchor="start"  transform="rotate(270,13034,6396.3)" >CS0</text><text x="13029" y="6400.5" font-family="Verdana" font-size="7pt" fill="#000000" text-anchor="end"  transform="rotate(270,13029,6400.5)" >9</text><circle cx="13030" cy="6403" r="3" stroke="#000000" fill="none" stroke-width="1" display="none" /><path d="M 13033 6400 L 13030 6397 L 13027 6400" fill="none" stroke="#000000" stroke-width="1"  display="none" /></g><g c_partid="part_pin" c_etype="pinpart"  c_show="show"  c_elec="0" c_spicepin="10" c_origin="13040,6410" id="gge15442" c_rotation="270"><circle c_pindot="true" class="pindot" cx="13040" cy="6410" r="2" fill="#4F4F4F" stroke="none" /><path d="M 13040 6410 v -10" fill="none" stroke="#000000" stroke-width="1"/><text x="13044" y="6396.3" font-family="Verdana" font-size="7pt" fill="#000000" text-anchor="start"  transform="rotate(270,13044,6396.3)" >MISO</text><text x="13039" y="6400.5" font-family="Verdana" font-size="7pt" fill="#000000" text-anchor="end"  transform="rotate(270,13039,6400.5)" >10</text><circle cx="13040" cy="6403" r="3" stroke="#000000" fill="none" stroke-width="1" display="none" /><path d="M 13043 6400 L 13040 6397 L 13037 6400" fill="none" stroke="#000000" stroke-width="1"  display="none" /></g><g c_partid="part_pin" c_etype="pinpart"  c_show="show"  c_elec="0" c_spicepin="11" c_origin="13050,6410" id="gge15449" c_rotation="270"><circle c_pindot="true" class="pindot" cx="13050" cy="6410" r="2" fill="#4F4F4F" stroke="none" /><path d="M 13050 6410 v -10" fill="none" stroke="#000000" stroke-width="1"/><text x="13054" y="6396.3" font-family="Verdana" font-size="7pt" fill="#000000" text-anchor="start"  transform="rotate(270,13054,6396.3)" >IO9</text><text x="13049" y="6400.5" font-family="Verdana" font-size="7pt" fill="#000000" text-anchor="end"  transform="rotate(270,13049,6400.5)" >11</text><circle cx="13050" cy="6403" r="3" stroke="#000000" fill="none" stroke-width="1" display="none" /><path d="M 13053 6400 L 13050 6397 L 13047 6400" fill="none" stroke="#000000" stroke-width="1"  display="none" /></g><g c_partid="part_pin" c_etype="pinpart"  c_show="show"  c_elec="0" c_spicepin="12" c_origin="13070,6410" id="gge15456" c_rotation="270"><circle c_pindot="true" class="pindot" cx="13070" cy="6410" r="2" fill="#4F4F4F" stroke="none" /><path d="M 13070 6410 v -10" fill="none" stroke="#000000" stroke-width="1"/><text x="13074" y="6396.3" font-family="Verdana" font-size="7pt" fill="#000000" text-anchor="start"  transform="rotate(270,13074,6396.3)" >IO10</text><text x="13069" y="6400.5" font-family="Verdana" font-size="7pt" fill="#000000" text-anchor="end"  transform="rotate(270,13069,6400.5)" >12</text><circle cx="13070" cy="6403" r="3" stroke="#000000" fill="none" stroke-width="1" display="none" /><path d="M 13073 6400 L 13070 6397 L 13067 6400" fill="none" stroke="#000000" stroke-width="1"  display="none" /></g><g c_partid="part_pin" c_etype="pinpart"  c_show="show"  c_elec="0" c_spicepin="13" c_origin="13080,6410" id="gge15463" c_rotation="270"><circle c_pindot="true" class="pindot" cx="13080" cy="6410" r="2" fill="#4F4F4F" stroke="none" /><path d="M 13080 6410 v -10" fill="none" stroke="#000000" stroke-width="1"/><text x="13084" y="6396.3" font-family="Verdana" font-size="7pt" fill="#000000" text-anchor="start"  transform="rotate(270,13084,6396.3)" >MOSI</text><text x="13079" y="6400.5" font-family="Verdana" font-size="7pt" fill="#000000" text-anchor="end"  transform="rotate(270,13079,6400.5)" >13</text><circle cx="13080" cy="6403" r="3" stroke="#000000" fill="none" stroke-width="1" display="none" /><path d="M 13083 6400 L 13080 6397 L 13077 6400" fill="none" stroke="#000000" stroke-width="1"  display="none" /></g><g c_partid="part_pin" c_etype="pinpart"  c_show="show"  c_elec="0" c_spicepin="14" c_origin="13090,6410" id="gge15470" c_rotation="270"><circle c_pindot="true" class="pindot" cx="13090" cy="6410" r="2" fill="#4F4F4F" stroke="none" /><path d="M 13090 6410 v -10" fill="none" stroke="#000000" stroke-width="1"/><text x="13094" y="6396.3" font-family="Verdana" font-size="7pt" fill="#000000" text-anchor="start"  transform="rotate(270,13094,6396.3)" >SCLK</text><text x="13089" y="6400.5" font-family="Verdana" font-size="7pt" fill="#000000" text-anchor="end"  transform="rotate(270,13089,6400.5)" >14</text><circle cx="13090" cy="6403" r="3" stroke="#000000" fill="none" stroke-width="1" display="none" /><path d="M 13093 6400 L 13090 6397 L 13087 6400" fill="none" stroke="#000000" stroke-width="1"  display="none" /></g><g c_partid="part_pin" c_etype="pinpart"  c_show="show"  c_elec="0" c_spicepin="15" c_origin="13120,6370" id="gge15477" c_rotation="0"><circle c_pindot="true" class="pindot" cx="13120" cy="6370" r="2" fill="#4F4F4F" stroke="none" /><path d="M 13120 6370 h -10" fill="none" stroke="#000000" stroke-width="1"/><text x="13106.3" y="6374" font-family="Verdana" font-size="7pt" fill="#000000" text-anchor="end"   >GND</text><text x="13110.5" y="6369" font-family="Verdana" font-size="7pt" fill="#000000" text-anchor="start"   >15</text><circle cx="13113" cy="6370" r="3" stroke="#000000" fill="none" stroke-width="1" display="none" /><path d="M 13110 6367 L 13107 6370 L 13110 6373" fill="none" stroke="#000000" stroke-width="1"  display="none" /></g><g c_partid="part_pin" c_etype="pinpart"  c_show="show"  c_elec="0" c_spicepin="16" c_origin="13120,6360" id="gge15484" c_rotation="0"><circle c_pindot="true" class="pindot" cx="13120" cy="6360" r="2" fill="#4F4F4F" stroke="none" /><path d="M 13120 6360 h -10" fill="none" stroke="#000000" stroke-width="1"/><text x="13106.3" y="6364" font-family="Verdana" font-size="7pt" fill="#000000" text-anchor="end"   >IO15</text><text x="13110.5" y="6359" font-family="Verdana" font-size="7pt" fill="#000000" text-anchor="start"   >16</text><circle cx="13113" cy="6360" r="3" stroke="#000000" fill="none" stroke-width="1" display="none" /><path d="M 13110 6357 L 13107 6360 L 13110 6363" fill="none" stroke="#000000" stroke-width="1"  display="none" /></g><g c_partid="part_pin" c_etype="pinpart"  c_show="show"  c_elec="0" c_spicepin="17" c_origin="13120,6350" id="gge15491" c_rotation="0"><circle c_pindot="true" class="pindot" cx="13120" cy="6350" r="2" fill="#4F4F4F" stroke="none" /><path d="M 13120 6350 h -10" fill="none" stroke="#000000" stroke-width="1"/><text x="13106.3" y="6354" font-family="Verdana" font-size="7pt" fill="#000000" text-anchor="end"   >IO2</text><text x="13110.5" y="6349" font-family="Verdana" font-size="7pt" fill="#000000" text-anchor="start"   >17</text><circle cx="13113" cy="6350" r="3" stroke="#000000" fill="none" stroke-width="1" display="none" /><path d="M 13110 6347 L 13107 6350 L 13110 6353" fill="none" stroke="#000000" stroke-width="1"  display="none" /></g><g c_partid="part_pin" c_etype="pinpart"  c_show="show"  c_elec="0" c_spicepin="18" c_origin="13120,6340" id="gge15498" c_rotation="0"><circle c_pindot="true" class="pindot" cx="13120" cy="6340" r="2" fill="#4F4F4F" stroke="none" /><path d="M 13120 6340 h -10" fill="none" stroke="#000000" stroke-width="1"/><text x="13106.3" y="6344" font-family="Verdana" font-size="7pt" fill="#000000" text-anchor="end"   >IO0</text><text x="13110.5" y="6339" font-family="Verdana" font-size="7pt" fill="#000000" text-anchor="start"   >18</text><circle cx="13113" cy="6340" r="3" stroke="#000000" fill="none" stroke-width="1" display="none" /><path d="M 13110 6337 L 13107 6340 L 13110 6343" fill="none" stroke="#000000" stroke-width="1"  display="none" /></g><g c_partid="part_pin" c_etype="pinpart"  c_show="show"  c_elec="0" c_spicepin="19" c_origin="13120,6330" id="gge15505" c_rotation="0"><circle c_pindot="true" class="pindot" cx="13120" cy="6330" r="2" fill="#4F4F4F" stroke="none" /><path d="M 13120 6330 h -10" fill="none" stroke="#000000" stroke-width="1"/><text x="13106.3" y="6334" font-family="Verdana" font-size="7pt" fill="#000000" text-anchor="end"   >IO4</text><text x="13110.5" y="6329" font-family="Verdana" font-size="7pt" fill="#000000" text-anchor="start"   >19</text><circle cx="13113" cy="6330" r="3" stroke="#000000" fill="none" stroke-width="1" display="none" /><path d="M 13110 6327 L 13107 6330 L 13110 6333" fill="none" stroke="#000000" stroke-width="1"  display="none" /></g><g c_partid="part_pin" c_etype="pinpart"  c_show="show"  c_elec="0" c_spicepin="20" c_origin="13120,6320" id="gge15512" c_rotation="0"><circle c_pindot="true" class="pindot" cx="13120" cy="6320" r="2" fill="#4F4F4F" stroke="none" /><path d="M 13120 6320 h -10" fill="none" stroke="#000000" stroke-width="1"/><text x="13106.3" y="6324" font-family="Verdana" font-size="7pt" fill="#000000" text-anchor="end"   >IO5</text><text x="13110.5" y="6319" font-family="Verdana" font-size="7pt" fill="#000000" text-anchor="start"   >20</text><circle cx="13113" cy="6320" r="3" stroke="#000000" fill="none" stroke-width="1" display="none" /><path d="M 13110 6317 L 13107 6320 L 13110 6323" fill="none" stroke="#000000" stroke-width="1"  display="none" /></g><g c_partid="part_pin" c_etype="pinpart"  c_show="show"  c_elec="0" c_spicepin="21" c_origin="13120,6310" id="gge15519" c_rotation="0"><circle c_pindot="true" class="pindot" cx="13120" cy="6310" r="2" fill="#4F4F4F" stroke="none" /><path d="M 13120 6310 h -10" fill="none" stroke="#000000" stroke-width="1"/><text x="13106.3" y="6314" font-family="Verdana" font-size="7pt" fill="#000000" text-anchor="end"   >RXD</text><text x="13110.5" y="6309" font-family="Verdana" font-size="7pt" fill="#000000" text-anchor="start"   >21</text><circle cx="13113" cy="6310" r="3" stroke="#000000" fill="none" stroke-width="1" display="none" /><path d="M 13110 6307 L 13107 6310 L 13110 6313" fill="none" stroke="#000000" stroke-width="1"  display="none" /></g><g c_partid="part_pin" c_etype="pinpart"  c_show="show"  c_elec="0" c_spicepin="22" c_origin="13120,6300" id="gge15526" c_rotation="0"><circle c_pindot="true" class="pindot" cx="13120" cy="6300" r="2" fill="#4F4F4F" stroke="none" /><path d="M 13120 6300 h -10" fill="none" stroke="#000000" stroke-width="1"/><text x="13106.3" y="6304" font-family="Verdana" font-size="7pt" fill="#000000" text-anchor="end"   >TXD</text><text x="13110.5" y="6299" font-family="Verdana" font-size="7pt" fill="#000000" text-anchor="start"   >22</text><circle cx="13113" cy="6300" r="3" stroke="#000000" fill="none" stroke-width="1" display="none" /><path d="M 13110 6297 L 13107 6300 L 13110 6303" fill="none" stroke="#000000" stroke-width="1"  display="none" /></g></g><polyline c_etype="wire" c_shapetype="line" points="12695 6485 12695 6475 12740 6475 12740 6490" stroke="#000000" id="gge15703" stroke-width="1"   fill="none" stroke-linecap="round" /><polyline c_etype="wire" c_shapetype="line" points="12695 6525 12740 6525 12740 6510" stroke="#000000" id="gge15704" stroke-width="1"   fill="none" stroke-linecap="round" /><polyline c_etype="wire" c_shapetype="line" points="12925 6400 12925 6490" stroke="#000000" id="gge15710" stroke-width="1"   fill="none" stroke-linecap="round" /><g c_origin="12975,6320" c_para="package`AXIAL-0.3`nameAlias`Value(&#x3a9;)`BOM_Manufacturer Part``spicePre`R`spiceSymbolName`Res_AXIAL-0.3(1/8W)_EU`" c_partid="part_import_gge15712" id="gge15712" c_shapetype="group" c_etype="pinpart" c_rotation="180"><g c_partid="part_annotation" id="gge15714" ><text c_note="note_name" x="12969.03125" y="6312" fill="#000000" font-family="Arial" font-size="7pt" font-weight="" font-style="" dominant-baseline="" text-anchor="start"  >10k</text></g><g c_partid="part_annotation" id="gge15716" ><text c_note="note_pre" x="12969.03125" y="6302.8515625" fill="#000000" font-family="Arial" font-size="7pt" font-weight="" font-style="" dominant-baseline="" text-anchor="start"  >R1</text></g><rect id="gge15718" x="12965" y="6315"   width="20" height="10" stroke="#000000" stroke-width="1" fill="none"   /><g c_partid="part_pin" c_etype="pinpart"  c_show="show"  c_elec="0" c_spicepin="2" c_origin="12955,6320" id="gge15719" c_rotation="180"><circle c_pindot="true" class="pindot" cx="12955" cy="6320" r="2" fill="#4F4F4F" stroke="none" /><path d="M 12965 6320 h -10" fill="none" stroke="#000000" stroke-width="1"/><text x="12969" y="6320" font-family="Verdana" font-size="7pt" fill="#000000" text-anchor="start" display="none"  >2</text><text x="12961" y="6316" font-family="Verdana" font-size="7pt" fill="#000000" text-anchor="end" display="none"  >2</text><circle cx="12942" cy="6320" r="3" stroke="#000000" fill="none" stroke-width="1" display="none" /><path d="M 12945 6323 L 12948 6320 L 12945 6317" fill="none" stroke="#000000" stroke-width="1"  display="none" /></g><g c_partid="part_pin" c_etype="pinpart"  c_show="show"  c_elec="0" c_spicepin="1" c_origin="12995,6320" id="gge15726" c_rotation="0"><circle c_pindot="true" class="pindot" cx="12995" cy="6320" r="2" fill="#4F4F4F" stroke="none" /><path d="M 12985 6320 h 10" fill="none" stroke="#000000" stroke-width="1"/><text x="12981" y="6320" font-family="Verdana" font-size="7pt" fill="#000000" text-anchor="end" display="none"  >1</text><text x="12989" y="6316" font-family="Verdana" font-size="7pt" fill="#000000" text-anchor="start" display="none"  >1</text><circle cx="13008" cy="6320" r="3" stroke="#000000" fill="none" stroke-width="1" display="none" /><path d="M 13005 6317 L 13002 6320 L 13005 6323" fill="none" stroke="#000000" stroke-width="1"  display="none" /></g></g><polyline c_etype="wire" c_shapetype="line" points="12995 6320 13000 6320" stroke="#000000" id="gge15755" stroke-width="1"   fill="none" stroke-linecap="round" /><polyline c_etype="wire" c_shapetype="line" points="12955 6320 12955 6490" stroke="#000000" id="gge15756" stroke-width="1"   fill="none" stroke-linecap="round" /><polyline c_etype="wire" c_shapetype="line" points="12865 6400 12865 6415 12965 6415 12965 6340 13000 6340" stroke="#000000" id="gge15768" stroke-width="1"   fill="none" stroke-linecap="round" /><polyline c_etype="wire" c_shapetype="line" points="13000 6350 12975 6350 12975 6425 12885 6425 12885 6400" stroke="#000000" id="gge15769" stroke-width="1"   fill="none" stroke-linecap="round" /><polyline c_etype="wire" c_shapetype="line" points="13000 6360 12985 6360 12985 6435 12875 6435 12875 6400" stroke="#000000" id="gge15770" stroke-width="1"   fill="none" stroke-linecap="round" /><polyline c_etype="wire" c_shapetype="line" points="13120 6320 13140 6320 13140 6445 12915 6445 12915 6400" stroke="#000000" id="gge15771" stroke-width="1"   fill="none" stroke-linecap="round" /><polyline c_etype="wire" c_shapetype="line" points="13120 6330 13130 6330 13130 6455 12855 6455 12855 6400" stroke="#000000" id="gge15786" stroke-width="1"   fill="none" stroke-linecap="round" /><polyline c_etype="wire" c_shapetype="line" points="12905 6400 12905 6510" stroke="#000000" id="gge15788" stroke-width="1"   fill="none" stroke-linecap="round" /><g c_origin="13180,6395" c_para="package`AXIAL-0.3`nameAlias`Value(&#x3a9;)`BOM_Manufacturer Part``spicePre`R`spiceSymbolName`Res_AXIAL-0.3(1/8W)_EU`" c_partid="part_import_gge15791" id="gge15791" c_shapetype="group" c_etype="pinpart" c_rotation="270"><g c_partid="part_annotation" id="gge15793" ><text c_note="note_name" x="13187" y="6407.375" fill="#000000" font-family="Arial" font-size="7pt" font-weight="" font-style="" dominant-baseline="" text-anchor="start"  >10k</text></g><g c_partid="part_annotation" id="gge15795" ><text c_note="note_pre" x="13187" y="6398.21875" fill="#000000" font-family="Arial" font-size="7pt" font-weight="" font-style="" dominant-baseline="" text-anchor="start"  >R2</text></g><rect id="gge15797" x="13175" y="6385"   width="10" height="20" stroke="#000000" stroke-width="1" fill="none"   /><g c_partid="part_pin" c_etype="pinpart"  c_show="show"  c_elec="0" c_spicepin="2" c_origin="13180,6415" id="gge15798" c_rotation="270"><circle c_pindot="true" class="pindot" cx="13180" cy="6415" r="2" fill="#4F4F4F" stroke="none" /><path d="M 13180 6405 v 10" fill="none" stroke="#000000" stroke-width="1"/><text x="13180" y="6401" font-family="Verdana" font-size="7pt" fill="#000000" text-anchor="start" display="none" transform="rotate(270,13180,6401)" >2</text><text x="13176" y="6409" font-family="Verdana" font-size="7pt" fill="#000000" text-anchor="end" display="none" transform="rotate(270,13176,6409)" >2</text><circle cx="13180" cy="6428" r="3" stroke="#000000" fill="none" stroke-width="1" display="none" /><path d="M 13183 6425 L 13180 6422 L 13177 6425" fill="none" stroke="#000000" stroke-width="1"  display="none" /></g><g c_partid="part_pin" c_etype="pinpart"  c_show="show"  c_elec="0" c_spicepin="1" c_origin="13180,6375" id="gge15805" c_rotation="90"><circle c_pindot="true" class="pindot" cx="13180" cy="6375" r="2" fill="#4F4F4F" stroke="none" /><path d="M 13180 6385 v -10" fill="none" stroke="#000000" stroke-width="1"/><text x="13180" y="6389" font-family="Verdana" font-size="7pt" fill="#000000" text-anchor="end" display="none" transform="rotate(270,13180,6389)" >1</text><text x="13176" y="6381" font-family="Verdana" font-size="7pt" fill="#000000" text-anchor="start" display="none" transform="rotate(270,13176,6381)" >1</text><circle cx="13180" cy="6362" r="3" stroke="#000000" fill="none" stroke-width="1" display="none" /><path d="M 13177 6365 L 13180 6368 L 13183 6365" fill="none" stroke="#000000" stroke-width="1"  display="none" /></g></g><g c_origin="13150,6395" c_para="package`AXIAL-0.3`nameAlias`Value(&#x3a9;)`BOM_Manufacturer Part``spicePre`R`spiceSymbolName`Res_AXIAL-0.3(1/8W)_EU`" c_partid="part_import_gge15816" id="gge15816" c_shapetype="group" c_etype="pinpart" c_rotation="270"><g c_partid="part_annotation" id="gge15818" ><text c_note="note_name" x="13157" y="6407.375" fill="#000000" font-family="Arial" font-size="7pt" font-weight="" font-style="" dominant-baseline="" text-anchor="start"  >10k</text></g><g c_partid="part_annotation" id="gge15820" ><text c_note="note_pre" x="13157" y="6398.21875" fill="#000000" font-family="Arial" font-size="7pt" font-weight="" font-style="" dominant-baseline="" text-anchor="start"  >R3</text></g><rect id="gge15822" x="13145" y="6385"   width="10" height="20" stroke="#000000" stroke-width="1" fill="none"   /><g c_partid="part_pin" c_etype="pinpart"  c_show="show"  c_elec="0" c_spicepin="2" c_origin="13150,6415" id="gge15823" c_rotation="270"><circle c_pindot="true" class="pindot" cx="13150" cy="6415" r="2" fill="#4F4F4F" stroke="none" /><path d="M 13150 6405 v 10" fill="none" stroke="#000000" stroke-width="1"/><text x="13150" y="6401" font-family="Verdana" font-size="7pt" fill="#000000" text-anchor="start" display="none" transform="rotate(270,13150,6401)" >2</text><text x="13146" y="6409" font-family="Verdana" font-size="7pt" fill="#000000" text-anchor="end" display="none" transform="rotate(270,13146,6409)" >2</text><circle cx="13150" cy="6428" r="3" stroke="#000000" fill="none" stroke-width="1" display="none" /><path d="M 13153 6425 L 13150 6422 L 13147 6425" fill="none" stroke="#000000" stroke-width="1"  display="none" /></g><g c_partid="part_pin" c_etype="pinpart"  c_show="show"  c_elec="0" c_spicepin="1" c_origin="13150,6375" id="gge15830" c_rotation="90"><circle c_pindot="true" class="pindot" cx="13150" cy="6375" r="2" fill="#4F4F4F" stroke="none" /><path d="M 13150 6385 v -10" fill="none" stroke="#000000" stroke-width="1"/><text x="13150" y="6389" font-family="Verdana" font-size="7pt" fill="#000000" text-anchor="end" display="none" transform="rotate(270,13150,6389)" >1</text><text x="13146" y="6381" font-family="Verdana" font-size="7pt" fill="#000000" text-anchor="start" display="none" transform="rotate(270,13146,6381)" >1</text><circle cx="13150" cy="6362" r="3" stroke="#000000" fill="none" stroke-width="1" display="none" /><path d="M 13147 6365 L 13150 6368 L 13153 6365" fill="none" stroke="#000000" stroke-width="1"  display="none" /></g></g><polyline c_etype="wire" c_shapetype="line" points="13120 6350 13180 6350 13180 6375" stroke="#000000" id="gge15840" stroke-width="1"   fill="none" stroke-linecap="round" /><polyline c_etype="wire" c_shapetype="line" points="13180 6415 13180 6490 12840 6490" stroke="#000000" id="gge15841" stroke-width="1"   fill="none" stroke-linecap="round" /><polyline c_etype="wire" c_shapetype="line" points="12840 6510 13000 6510 13150 6510 13150 6415" stroke="#000000" id="gge15846" stroke-width="1"   fill="none" stroke-linecap="round" /><g c_origin="13210,6395" c_para="package`AXIAL-0.3`nameAlias`Value(&#x3a9;)`BOM_Manufacturer Part``spicePre`R`spiceSymbolName`Res_AXIAL-0.3(1/8W)_EU`" c_partid="part_import_gge15850" id="gge15850" c_shapetype="group" c_etype="pinpart" c_rotation="270"><g c_partid="part_annotation" id="gge15852" ><text c_note="note_name" x="13217" y="6407.375" fill="#000000" font-family="Arial" font-size="7pt" font-weight="" font-style="" dominant-baseline="" text-anchor="start"  >10k</text></g><g c_partid="part_annotation" id="gge15854" ><text c_note="note_pre" x="13217" y="6398.21875" fill="#000000" font-family="Arial" font-size="7pt" font-weight="" font-style="" dominant-baseline="" text-anchor="start"  >R4</text></g><rect id="gge15856" x="13205" y="6385"   width="10" height="20" stroke="#000000" stroke-width="1" fill="none"   /><g c_partid="part_pin" c_etype="pinpart"  c_show="show"  c_elec="0" c_spicepin="2" c_origin="13210,6415" id="gge15857" c_rotation="270"><circle c_pindot="true" class="pindot" cx="13210" cy="6415" r="2" fill="#4F4F4F" stroke="none" /><path d="M 13210 6405 v 10" fill="none" stroke="#000000" stroke-width="1"/><text x="13210" y="6401" font-family="Verdana" font-size="7pt" fill="#000000" text-anchor="start" display="none" transform="rotate(270,13210,6401)" >2</text><text x="13206" y="6409" font-family="Verdana" font-size="7pt" fill="#000000" text-anchor="end" display="none" transform="rotate(270,13206,6409)" >2</text><circle cx="13210" cy="6428" r="3" stroke="#000000" fill="none" stroke-width="1" display="none" /><path d="M 13213 6425 L 13210 6422 L 13207 6425" fill="none" stroke="#000000" stroke-width="1"  display="none" /></g><g c_partid="part_pin" c_etype="pinpart"  c_show="show"  c_elec="0" c_spicepin="1" c_origin="13210,6375" id="gge15864" c_rotation="90"><circle c_pindot="true" class="pindot" cx="13210" cy="6375" r="2" fill="#4F4F4F" stroke="none" /><path d="M 13210 6385 v -10" fill="none" stroke="#000000" stroke-width="1"/><text x="13210" y="6389" font-family="Verdana" font-size="7pt" fill="#000000" text-anchor="end" display="none" transform="rotate(270,13210,6389)" >1</text><text x="13206" y="6381" font-family="Verdana" font-size="7pt" fill="#000000" text-anchor="start" display="none" transform="rotate(270,13206,6381)" >1</text><circle cx="13210" cy="6362" r="3" stroke="#000000" fill="none" stroke-width="1" display="none" /><path d="M 13207 6365 L 13210 6368 L 13213 6365" fill="none" stroke="#000000" stroke-width="1"  display="none" /></g></g><polyline c_etype="wire" c_shapetype="line" points="13120 6340 13210 6340 13210 6375" stroke="#000000" id="gge15874" stroke-width="1"   fill="none" stroke-linecap="round" /><polyline c_etype="wire" c_shapetype="line" points="13210 6415 13210 6490 13180 6490" stroke="#000000" id="gge15875" stroke-width="1"   fill="none" stroke-linecap="round" /><polyline c_etype="wire" c_shapetype="line" points="13000 6370 13000 6490" stroke="#000000" id="gge15880" stroke-width="1"   fill="none" stroke-linecap="round" /><polyline c_etype="wire" c_shapetype="line" points="13150 6375 13150 6360 13120 6360" stroke="#000000" id="gge15887" stroke-width="1"   fill="none" stroke-linecap="round" /><polyline c_etype="wire" c_shapetype="line" points="13120 6370 13120 6510" stroke="#000000" id="gge15888" stroke-width="1"   fill="none" stroke-linecap="round" /><g c_partid="part_junction" c_etype="pinpart" c_origin="13120,6510" id="gge15889" c_shapetype="group"><circle c_pindot="true" class="pindot" cx="13120" cy="6510" r="2" fill="#4F4F4F" stroke="none"/><circle cx="13120" cy="6510" r="2.5" fill="#000000" stroke-width="1"/></g><g c_partid="part_junction" c_etype="pinpart" c_origin="13180,6490" id="gge15876" c_shapetype="group"><circle c_pindot="true" class="pindot" cx="13180" cy="6490" r="2" fill="#4F4F4F" stroke="none"/><circle cx="13180" cy="6490" r="2.5" fill="#000000" stroke-width="1"/></g><g c_partid="part_junction" c_etype="pinpart" c_origin="12905,6510" id="gge15879" c_shapetype="group"><circle c_pindot="true" class="pindot" cx="12905" cy="6510" r="2" fill="#4F4F4F" stroke="none"/><circle cx="12905" cy="6510" r="2.5" fill="#000000" stroke-width="1"/></g><g c_partid="part_junction" c_etype="pinpart" c_origin="12925,6490" id="gge15884" c_shapetype="group"><circle c_pindot="true" class="pindot" cx="12925" cy="6490" r="2" fill="#4F4F4F" stroke="none"/><circle cx="12925" cy="6490" r="2.5" fill="#000000" stroke-width="1"/></g><g c_partid="part_junction" c_etype="pinpart" c_origin="12955,6490" id="gge15885" c_shapetype="group"><circle c_pindot="true" class="pindot" cx="12955" cy="6490" r="2" fill="#4F4F4F" stroke="none"/><circle cx="12955" cy="6490" r="2.5" fill="#000000" stroke-width="1"/></g><g c_partid="part_junction" c_etype="pinpart" c_origin="13000,6490" id="gge15886" c_shapetype="group"><circle c_pindot="true" class="pindot" cx="13000" cy="6490" r="2" fill="#4F4F4F" stroke="none"/><circle cx="13000" cy="6490" r="2.5" fill="#000000" stroke-width="1"/></g></g></svg>